<svg width="53" height="29" viewBox="0 0 53 29" fill="none" xmlns="http://www.w3.org/2000/svg">
<path d="M25.5 1H27.82C29.26 1 30.3933 2.24 30.2733 3.66667L29.1667 16.9467C29.1235 17.4611 29.1876 17.979 29.355 18.4674C29.5224 18.9558 29.7894 19.4041 30.1391 19.7839C30.4888 20.1637 30.9136 20.4667 31.3866 20.6738C31.8596 20.8808 32.3704 20.9874 32.8867 20.9867H47.0867C49.0067 20.9867 50.6867 19.4133 50.8333 17.5067L51.5533 7.50667C51.7133 5.29333 50.0333 3.49333 47.8067 3.49333H30.5933M34.8333 9H50.8333M44.5 27.6667C44.942 27.6667 45.366 27.4911 45.6785 27.1785C45.9911 26.866 46.1667 26.442 46.1667 26C46.1667 25.558 45.9911 25.134 45.6785 24.8215C45.366 24.5089 44.942 24.3333 44.5 24.3333C44.058 24.3333 43.634 24.5089 43.3215 24.8215C43.0089 25.134 42.8333 25.558 42.8333 26C42.8333 26.442 43.0089 26.866 43.3215 27.1785C43.634 27.4911 44.058 27.6667 44.5 27.6667ZM33.8333 27.6667C34.2754 27.6667 34.6993 27.4911 35.0118 27.1785C35.3244 26.866 35.5 26.442 35.5 26C35.5 25.558 35.3244 25.134 35.0118 24.8215C34.6993 24.5089 34.2754 24.3333 33.8333 24.3333C33.3913 24.3333 32.9674 24.5089 32.6548 24.8215C32.3423 25.134 32.1667 25.558 32.1667 26C32.1667 26.442 32.3423 26.866 32.6548 27.1785C32.9674 27.4911 33.3913 27.6667 33.8333 27.6667Z" stroke="white" stroke-width="2" stroke-miterlimit="10" stroke-linecap="round" stroke-linejoin="round"/>
<path d="M4.5 9L20.5 9" stroke="white" stroke-width="2" stroke-linecap="round"/>
<path d="M8.5 14H18.5" stroke="white" stroke-width="2" stroke-linecap="round"/>
<path d="M1.5 19L21.5 19" stroke="white" stroke-width="2" stroke-linecap="round"/>
</svg>
