<svg width="170" height="100" viewBox="0 0 170 100" fill="none" xmlns="http://www.w3.org/2000/svg">
<path d="M32.1466 63.1227C42.9064 63.1227 52.4219 57.7034 58.1302 49.4522C52.3352 41.2499 42.7953 35.8857 32 35.8857C21.2957 35.8857 11.8254 41.1581 6.01624 49.2442C11.7076 57.6177 21.2963 63.1227 32.1466 63.1227Z" fill="url(#paint0_linear_18_3677)"/>
<path d="M32.1465 67.5389C20.4878 67.5389 10.1108 61.9545 3.5274 53.3179C1.27736 57.7035 0 62.6762 0 67.9426C0 85.6481 14.327 100 32 100C49.673 100 64 85.6481 64 67.9426C64 62.7619 62.7659 57.8747 60.5878 53.5442C53.9966 62.0523 43.7026 67.5389 32.1465 67.5389Z" fill="url(#paint1_linear_18_3677)"/>
<path d="M5.13086 31.4757C5.13086 46.394 17.2505 58.5353 32.1466 58.5353C47.0438 58.5353 59.1623 46.394 59.1623 31.4757C59.1623 16.5514 47.0438 4.41002 32.1466 4.41002C17.2505 4.41002 5.13086 16.5514 5.13086 31.4757ZM63.5684 31.4757C63.5684 48.8283 49.4728 62.9515 32.1466 62.9515C14.8204 62.9515 0.724819 48.8283 0.724819 31.4757C0.724819 14.117 14.8204 1.14441e-05 32.1466 1.14441e-05C49.4728 1.14441e-05 63.5684 14.117 63.5684 31.4757Z" fill="url(#paint2_linear_18_3677)"/>
<path d="M73.824 31V14.2H76.584V31H73.824ZM75.72 31V28.48H84.504V31H75.72ZM88.6033 31V19.48H91.2433V31H88.6033ZM89.9233 17.368C89.4753 17.368 89.0993 17.216 88.7953 16.912C88.5073 16.608 88.3633 16.232 88.3633 15.784C88.3633 15.336 88.5073 14.96 88.7953 14.656C89.0993 14.352 89.4753 14.2 89.9233 14.2C90.3873 14.2 90.7633 14.352 91.0513 14.656C91.3393 14.96 91.4833 15.336 91.4833 15.784C91.4833 16.232 91.3393 16.608 91.0513 16.912C90.7633 17.216 90.3873 17.368 89.9233 17.368ZM97.8763 31V14.68H100.516V31H97.8763ZM95.1163 21.88V19.48H103.276V21.88H95.1163ZM112.138 31.24C110.986 31.24 109.946 30.984 109.018 30.472C108.106 29.944 107.378 29.224 106.834 28.312C106.306 27.4 106.042 26.376 106.042 25.24C106.042 24.104 106.306 23.088 106.834 22.192C107.362 21.28 108.074 20.56 108.97 20.032C109.882 19.504 110.89 19.24 111.994 19.24C113.066 19.24 114.01 19.488 114.826 19.984C115.658 20.48 116.306 21.16 116.77 22.024C117.25 22.888 117.49 23.872 117.49 24.976C117.49 25.168 117.474 25.368 117.442 25.576C117.426 25.768 117.394 25.984 117.346 26.224H107.89V24.064H115.978L114.994 24.928C114.962 24.224 114.826 23.632 114.586 23.152C114.346 22.672 114.002 22.304 113.554 22.048C113.122 21.792 112.586 21.664 111.946 21.664C111.274 21.664 110.69 21.808 110.194 22.096C109.698 22.384 109.314 22.792 109.042 23.32C108.77 23.832 108.634 24.448 108.634 25.168C108.634 25.888 108.778 26.52 109.066 27.064C109.354 27.608 109.762 28.032 110.29 28.336C110.818 28.624 111.426 28.768 112.114 28.768C112.706 28.768 113.25 28.664 113.746 28.456C114.258 28.248 114.69 27.944 115.042 27.544L116.722 29.248C116.162 29.904 115.482 30.4 114.682 30.736C113.882 31.072 113.034 31.24 112.138 31.24ZM126.831 31.24C125.695 31.24 124.663 30.976 123.735 30.448C122.823 29.92 122.103 29.2 121.575 28.288C121.047 27.376 120.783 26.36 120.783 25.24C120.783 24.104 121.047 23.088 121.575 22.192C122.103 21.28 122.823 20.56 123.735 20.032C124.663 19.504 125.695 19.24 126.831 19.24C127.727 19.24 128.559 19.416 129.327 19.768C130.111 20.104 130.775 20.592 131.319 21.232L129.591 22.984C129.255 22.584 128.847 22.288 128.367 22.096C127.903 21.888 127.391 21.784 126.831 21.784C126.175 21.784 125.591 21.936 125.079 22.24C124.583 22.528 124.191 22.928 123.903 23.44C123.631 23.952 123.495 24.552 123.495 25.24C123.495 25.912 123.631 26.512 123.903 27.04C124.191 27.552 124.583 27.96 125.079 28.264C125.591 28.552 126.175 28.696 126.831 28.696C127.391 28.696 127.903 28.6 128.367 28.408C128.847 28.2 129.255 27.896 129.591 27.496L131.319 29.248C130.775 29.888 130.111 30.384 129.327 30.736C128.559 31.072 127.727 31.24 126.831 31.24ZM140.188 31.24C139.068 31.24 138.052 30.976 137.14 30.448C136.228 29.904 135.5 29.176 134.956 28.264C134.428 27.352 134.164 26.336 134.164 25.216C134.164 24.096 134.428 23.088 134.956 22.192C135.5 21.296 136.228 20.584 137.14 20.056C138.052 19.512 139.068 19.24 140.188 19.24C141.324 19.24 142.348 19.504 143.26 20.032C144.172 20.56 144.892 21.28 145.42 22.192C145.964 23.088 146.236 24.096 146.236 25.216C146.236 26.336 145.964 27.352 145.42 28.264C144.892 29.176 144.172 29.904 143.26 30.448C142.348 30.976 141.324 31.24 140.188 31.24ZM140.188 28.696C140.844 28.696 141.42 28.552 141.916 28.264C142.428 27.96 142.82 27.544 143.092 27.016C143.38 26.488 143.524 25.888 143.524 25.216C143.524 24.544 143.38 23.952 143.092 23.44C142.804 22.928 142.412 22.528 141.916 22.24C141.42 21.936 140.844 21.784 140.188 21.784C139.548 21.784 138.972 21.936 138.46 22.24C137.964 22.528 137.572 22.928 137.284 23.44C137.012 23.952 136.876 24.544 136.876 25.216C136.876 25.888 137.012 26.488 137.284 27.016C137.572 27.544 137.964 27.96 138.46 28.264C138.972 28.552 139.548 28.696 140.188 28.696ZM150.375 31V19.48H153.015V31H150.375ZM151.695 17.368C151.247 17.368 150.871 17.216 150.567 16.912C150.279 16.608 150.135 16.232 150.135 15.784C150.135 15.336 150.279 14.96 150.567 14.656C150.871 14.352 151.247 14.2 151.695 14.2C152.159 14.2 152.535 14.352 152.823 14.656C153.111 14.96 153.255 15.336 153.255 15.784C153.255 16.232 153.111 16.608 152.823 16.912C152.535 17.216 152.159 17.368 151.695 17.368ZM165.792 31V24.352C165.792 23.584 165.544 22.952 165.048 22.456C164.568 21.96 163.944 21.712 163.176 21.712C162.664 21.712 162.208 21.824 161.808 22.048C161.408 22.272 161.096 22.584 160.872 22.984C160.648 23.384 160.536 23.84 160.536 24.352L159.504 23.776C159.504 22.896 159.696 22.12 160.08 21.448C160.464 20.76 160.992 20.224 161.664 19.84C162.352 19.44 163.12 19.24 163.968 19.24C164.832 19.24 165.6 19.464 166.272 19.912C166.944 20.344 167.472 20.912 167.856 21.616C168.24 22.304 168.432 23.024 168.432 23.776V31H165.792ZM157.896 31V19.48H160.536V31H157.896ZM75.72 59V56.48H80.136C81.288 56.48 82.296 56.232 83.16 55.736C84.04 55.24 84.72 54.552 85.2 53.672C85.696 52.776 85.944 51.744 85.944 50.576C85.944 49.424 85.696 48.408 85.2 47.528C84.704 46.648 84.016 45.96 83.136 45.464C82.272 44.968 81.272 44.72 80.136 44.72H75.72V42.2H80.208C81.424 42.2 82.552 42.416 83.592 42.848C84.632 43.264 85.536 43.856 86.304 44.624C87.088 45.376 87.696 46.264 88.128 47.288C88.56 48.296 88.776 49.4 88.776 50.6C88.776 51.784 88.56 52.888 88.128 53.912C87.696 54.936 87.096 55.832 86.328 56.6C85.56 57.352 84.656 57.944 83.616 58.376C82.576 58.792 81.456 59 80.256 59H75.72ZM73.824 59V42.2H76.584V59H73.824ZM98.4296 59.24C97.3096 59.24 96.2936 58.976 95.3816 58.448C94.4696 57.904 93.7416 57.176 93.1976 56.264C92.6696 55.352 92.4056 54.336 92.4056 53.216C92.4056 52.096 92.6696 51.088 93.1976 50.192C93.7416 49.296 94.4696 48.584 95.3816 48.056C96.2936 47.512 97.3096 47.24 98.4296 47.24C99.5656 47.24 100.59 47.504 101.502 48.032C102.414 48.56 103.134 49.28 103.662 50.192C104.206 51.088 104.478 52.096 104.478 53.216C104.478 54.336 104.206 55.352 103.662 56.264C103.134 57.176 102.414 57.904 101.502 58.448C100.59 58.976 99.5656 59.24 98.4296 59.24ZM98.4296 56.696C99.0856 56.696 99.6616 56.552 100.158 56.264C100.67 55.96 101.062 55.544 101.334 55.016C101.622 54.488 101.766 53.888 101.766 53.216C101.766 52.544 101.622 51.952 101.334 51.44C101.046 50.928 100.654 50.528 100.158 50.24C99.6616 49.936 99.0856 49.784 98.4296 49.784C97.7896 49.784 97.2136 49.936 96.7016 50.24C96.2056 50.528 95.8136 50.928 95.5256 51.44C95.2536 51.952 95.1176 52.544 95.1176 53.216C95.1176 53.888 95.2536 54.488 95.5256 55.016C95.8136 55.544 96.2056 55.96 96.7016 56.264C97.2136 56.552 97.7896 56.696 98.4296 56.696ZM108.593 59V47.48H111.233V59H108.593ZM116.249 59V52.136C116.249 51.368 116.009 50.776 115.529 50.36C115.049 49.928 114.457 49.712 113.753 49.712C113.273 49.712 112.841 49.808 112.457 50C112.089 50.192 111.793 50.472 111.569 50.84C111.345 51.192 111.233 51.624 111.233 52.136L110.201 51.56C110.201 50.68 110.393 49.92 110.777 49.28C111.161 48.64 111.681 48.144 112.337 47.792C112.993 47.424 113.729 47.24 114.545 47.24C115.361 47.24 116.097 47.416 116.753 47.768C117.409 48.12 117.929 48.616 118.313 49.256C118.697 49.896 118.889 50.664 118.889 51.56V59H116.249ZM123.905 59V52.136C123.905 51.368 123.665 50.776 123.185 50.36C122.705 49.928 122.113 49.712 121.409 49.712C120.945 49.712 120.521 49.808 120.137 50C119.753 50.192 119.449 50.472 119.225 50.84C119.001 51.192 118.889 51.624 118.889 52.136L117.401 51.56C117.481 50.68 117.737 49.92 118.169 49.28C118.601 48.64 119.153 48.144 119.825 47.792C120.513 47.424 121.265 47.24 122.081 47.24C122.913 47.24 123.665 47.416 124.337 47.768C125.009 48.12 125.545 48.616 125.945 49.256C126.345 49.896 126.545 50.664 126.545 51.56V59H123.905ZM136.009 59.24C134.969 59.24 134.025 58.976 133.177 58.448C132.345 57.92 131.681 57.208 131.185 56.312C130.705 55.4 130.465 54.384 130.465 53.264C130.465 52.128 130.705 51.112 131.185 50.216C131.681 49.304 132.345 48.584 133.177 48.056C134.025 47.512 134.969 47.24 136.009 47.24C136.889 47.24 137.665 47.432 138.337 47.816C139.025 48.184 139.569 48.696 139.969 49.352C140.369 50.008 140.569 50.752 140.569 51.584V54.896C140.569 55.728 140.369 56.472 139.969 57.128C139.585 57.784 139.049 58.304 138.361 58.688C137.673 59.056 136.889 59.24 136.009 59.24ZM136.441 56.744C137.417 56.744 138.201 56.416 138.793 55.76C139.401 55.104 139.705 54.264 139.705 53.24C139.705 52.552 139.569 51.944 139.297 51.416C139.025 50.888 138.641 50.48 138.145 50.192C137.665 49.888 137.097 49.736 136.441 49.736C135.801 49.736 135.233 49.888 134.737 50.192C134.257 50.48 133.873 50.888 133.585 51.416C133.313 51.944 133.177 52.552 133.177 53.24C133.177 53.928 133.313 54.536 133.585 55.064C133.873 55.592 134.257 56.008 134.737 56.312C135.233 56.6 135.801 56.744 136.441 56.744ZM139.537 59V55.904L139.993 53.096L139.537 50.312V47.48H142.177V59H139.537ZM147.051 59V47.48H149.691V59H147.051ZM148.371 45.368C147.923 45.368 147.547 45.216 147.243 44.912C146.955 44.608 146.811 44.232 146.811 43.784C146.811 43.336 146.955 42.96 147.243 42.656C147.547 42.352 147.923 42.2 148.371 42.2C148.835 42.2 149.211 42.352 149.499 42.656C149.787 42.96 149.931 43.336 149.931 43.784C149.931 44.232 149.787 44.608 149.499 44.912C149.211 45.216 148.835 45.368 148.371 45.368ZM162.468 59V52.352C162.468 51.584 162.22 50.952 161.724 50.456C161.244 49.96 160.62 49.712 159.852 49.712C159.34 49.712 158.884 49.824 158.484 50.048C158.084 50.272 157.772 50.584 157.548 50.984C157.324 51.384 157.212 51.84 157.212 52.352L156.18 51.776C156.18 50.896 156.372 50.12 156.756 49.448C157.14 48.76 157.668 48.224 158.34 47.84C159.028 47.44 159.796 47.24 160.644 47.24C161.508 47.24 162.276 47.464 162.948 47.912C163.62 48.344 164.148 48.912 164.532 49.616C164.916 50.304 165.108 51.024 165.108 51.776V59H162.468ZM154.572 59V47.48H157.212V59H154.572ZM78.504 87.24C77.176 87.24 76.048 87 75.12 86.52C74.192 86.04 73.36 85.336 72.624 84.408L74.496 82.536C74.96 83.208 75.512 83.736 76.152 84.12C76.792 84.488 77.608 84.672 78.6 84.672C79.528 84.672 80.264 84.48 80.808 84.096C81.368 83.712 81.648 83.184 81.648 82.512C81.648 81.952 81.504 81.496 81.216 81.144C80.928 80.792 80.544 80.504 80.064 80.28C79.6 80.04 79.08 79.832 78.504 79.656C77.944 79.464 77.376 79.256 76.8 79.032C76.24 78.792 75.72 78.496 75.24 78.144C74.776 77.792 74.4 77.336 74.112 76.776C73.824 76.216 73.68 75.504 73.68 74.64C73.68 73.648 73.92 72.808 74.4 72.12C74.896 71.416 75.56 70.88 76.392 70.512C77.224 70.144 78.152 69.96 79.176 69.96C80.28 69.96 81.264 70.176 82.128 70.608C83.008 71.04 83.72 71.592 84.264 72.264L82.392 74.136C81.912 73.592 81.408 73.192 80.88 72.936C80.368 72.664 79.776 72.528 79.104 72.528C78.272 72.528 77.616 72.696 77.136 73.032C76.672 73.368 76.44 73.84 76.44 74.448C76.44 74.96 76.584 75.376 76.872 75.696C77.16 76 77.536 76.264 78 76.488C78.48 76.696 79 76.896 79.56 77.088C80.136 77.28 80.704 77.496 81.264 77.736C81.84 77.976 82.36 78.288 82.824 78.672C83.304 79.04 83.688 79.52 83.976 80.112C84.264 80.704 84.408 81.448 84.408 82.344C84.408 83.848 83.872 85.04 82.8 85.92C81.744 86.8 80.312 87.24 78.504 87.24ZM93.9313 87.24C92.7793 87.24 91.7393 86.984 90.8113 86.472C89.8993 85.944 89.1713 85.224 88.6273 84.312C88.0993 83.4 87.8353 82.376 87.8353 81.24C87.8353 80.104 88.0993 79.088 88.6273 78.192C89.1553 77.28 89.8673 76.56 90.7633 76.032C91.6753 75.504 92.6833 75.24 93.7873 75.24C94.8593 75.24 95.8033 75.488 96.6193 75.984C97.4513 76.48 98.0993 77.16 98.5633 78.024C99.0433 78.888 99.2833 79.872 99.2833 80.976C99.2833 81.168 99.2673 81.368 99.2353 81.576C99.2193 81.768 99.1873 81.984 99.1393 82.224H89.6833V80.064H97.7713L96.7873 80.928C96.7553 80.224 96.6193 79.632 96.3793 79.152C96.1393 78.672 95.7953 78.304 95.3473 78.048C94.9153 77.792 94.3793 77.664 93.7393 77.664C93.0673 77.664 92.4833 77.808 91.9873 78.096C91.4913 78.384 91.1073 78.792 90.8353 79.32C90.5633 79.832 90.4273 80.448 90.4273 81.168C90.4273 81.888 90.5713 82.52 90.8593 83.064C91.1473 83.608 91.5553 84.032 92.0833 84.336C92.6113 84.624 93.2193 84.768 93.9073 84.768C94.4993 84.768 95.0433 84.664 95.5393 84.456C96.0513 84.248 96.4833 83.944 96.8353 83.544L98.5153 85.248C97.9553 85.904 97.2753 86.4 96.4753 86.736C95.6753 87.072 94.8273 87.24 93.9313 87.24ZM103.32 87V75.48H105.96V87H103.32ZM105.96 80.592L105.048 80.136C105.048 78.68 105.368 77.504 106.008 76.608C106.664 75.696 107.648 75.24 108.96 75.24C109.536 75.24 110.056 75.344 110.52 75.552C110.984 75.76 111.416 76.096 111.816 76.56L110.088 78.336C109.88 78.112 109.648 77.952 109.392 77.856C109.136 77.76 108.84 77.712 108.504 77.712C107.768 77.712 107.16 77.944 106.68 78.408C106.2 78.872 105.96 79.6 105.96 80.592ZM118.737 87L113.481 75.48H116.409L120.417 84.864H118.689L122.721 75.48H125.529L120.273 87H118.737ZM129.027 87V75.48H131.667V87H129.027ZM130.347 73.368C129.899 73.368 129.523 73.216 129.219 72.912C128.931 72.608 128.787 72.232 128.787 71.784C128.787 71.336 128.931 70.96 129.219 70.656C129.523 70.352 129.899 70.2 130.347 70.2C130.811 70.2 131.187 70.352 131.475 70.656C131.763 70.96 131.907 71.336 131.907 71.784C131.907 72.232 131.763 72.608 131.475 72.912C131.187 73.216 130.811 73.368 130.347 73.368ZM141.852 87.24C140.716 87.24 139.684 86.976 138.756 86.448C137.844 85.92 137.124 85.2 136.596 84.288C136.068 83.376 135.804 82.36 135.804 81.24C135.804 80.104 136.068 79.088 136.596 78.192C137.124 77.28 137.844 76.56 138.756 76.032C139.684 75.504 140.716 75.24 141.852 75.24C142.748 75.24 143.58 75.416 144.348 75.768C145.132 76.104 145.796 76.592 146.34 77.232L144.612 78.984C144.276 78.584 143.868 78.288 143.388 78.096C142.924 77.888 142.412 77.784 141.852 77.784C141.196 77.784 140.612 77.936 140.1 78.24C139.604 78.528 139.212 78.928 138.924 79.44C138.652 79.952 138.516 80.552 138.516 81.24C138.516 81.912 138.652 82.512 138.924 83.04C139.212 83.552 139.604 83.96 140.1 84.264C140.612 84.552 141.196 84.696 141.852 84.696C142.412 84.696 142.924 84.6 143.388 84.408C143.868 84.2 144.276 83.896 144.612 83.496L146.34 85.248C145.796 85.888 145.132 86.384 144.348 86.736C143.58 87.072 142.748 87.24 141.852 87.24ZM155.281 87.24C154.129 87.24 153.089 86.984 152.161 86.472C151.249 85.944 150.521 85.224 149.977 84.312C149.449 83.4 149.185 82.376 149.185 81.24C149.185 80.104 149.449 79.088 149.977 78.192C150.505 77.28 151.217 76.56 152.113 76.032C153.025 75.504 154.033 75.24 155.137 75.24C156.209 75.24 157.153 75.488 157.969 75.984C158.801 76.48 159.449 77.16 159.913 78.024C160.393 78.888 160.633 79.872 160.633 80.976C160.633 81.168 160.617 81.368 160.585 81.576C160.569 81.768 160.537 81.984 160.489 82.224H151.033V80.064H159.121L158.137 80.928C158.105 80.224 157.969 79.632 157.729 79.152C157.489 78.672 157.145 78.304 156.697 78.048C156.265 77.792 155.729 77.664 155.089 77.664C154.417 77.664 153.833 77.808 153.337 78.096C152.841 78.384 152.457 78.792 152.185 79.32C151.913 79.832 151.777 80.448 151.777 81.168C151.777 81.888 151.921 82.52 152.209 83.064C152.497 83.608 152.905 84.032 153.433 84.336C153.961 84.624 154.569 84.768 155.257 84.768C155.849 84.768 156.393 84.664 156.889 84.456C157.401 84.248 157.833 83.944 158.185 83.544L159.865 85.248C159.305 85.904 158.625 86.4 157.825 86.736C157.025 87.072 156.177 87.24 155.281 87.24Z" fill="white"/>
<defs>
<linearGradient id="paint0_linear_18_3677" x1="32.3951" y1="100.229" x2="32.395" y2="0.45319" gradientUnits="userSpaceOnUse">
<stop stop-color="#00C9FF"/>
<stop offset="1" stop-color="#92FE9D"/>
</linearGradient>
<linearGradient id="paint1_linear_18_3677" x1="32.395" y1="100" x2="32.395" y2="-0.234851" gradientUnits="userSpaceOnUse">
<stop stop-color="#00C9FF"/>
<stop offset="1" stop-color="#92FE9D"/>
</linearGradient>
<linearGradient id="paint2_linear_18_3677" x1="32.5346" y1="100.688" x2="32.5345" y2="1.2954e-05" gradientUnits="userSpaceOnUse">
<stop stop-color="#00C9FF"/>
<stop offset="1" stop-color="#92FE9D"/>
</linearGradient>
</defs>
</svg>
