<svg width="27" height="26" viewBox="0 0 27 26" fill="none" xmlns="http://www.w3.org/2000/svg">
<path d="M13.5 0.5C6.59643 0.5 1 6.09645 1 13C1 19.9036 6.59643 25.5001 13.5 25.5001C20.4035 25.5001 25.9999 19.9036 25.9999 13V13C26.0096 9.69444 24.7057 6.52041 22.3751 4.1762C20.0445 1.83199 16.8782 0.509619 13.5726 0.5H13.5Z" stroke="#345D9D"/>
<path d="M13.7115 13.4239L12.41 17.8125H19.3713C19.4644 17.8093 19.555 17.8431 19.6232 17.9067C19.6913 17.9703 19.7313 18.0584 19.7345 18.1515V18.2665L19.1292 20.3549C19.0742 20.5583 18.8857 20.6965 18.6752 20.6878H8.02143L9.80714 14.6043L7.80957 15.2096L8.26356 13.8174L10.2611 13.212L12.7732 4.6769C12.8301 4.47482 13.0174 4.3375 13.2272 4.34397H15.9209C16.0141 4.3407 16.1047 4.37459 16.1728 4.43818C16.2409 4.50176 16.281 4.58982 16.2841 4.68295V4.79797L14.1655 12.0014L16.1631 11.396L15.7393 12.8488L13.7115 13.4239Z" fill="white" fill-opacity="0.5"/>
</svg>
