<svg width="546" height="208" viewBox="0 0 546 208" fill="none" xmlns="http://www.w3.org/2000/svg">
<path d="M-52 177.334C68.9779 164.043 -19.9144 112.862 90.7055 80.8492C205.268 47.6951 234.251 187.165 344.465 149.154C415.917 124.512 471.758 24.9012 543.918 1" stroke="#53D258" stroke-linecap="round"/>
<path d="M92.7875 79.8493C-17.8324 111.862 71.0599 163.043 -49.918 176.334V336.05H546V0C473.84 23.9012 417.999 123.512 346.547 148.154C236.333 186.165 207.35 46.6951 92.7875 79.8493Z" fill="url(#paint0_linear_841_42)"/>
<line x1="487.5" y1="35" x2="487.5" y2="208" stroke="white" stroke-opacity="0.21" stroke-dasharray="6 6"/>
<circle cx="488" cy="34" r="2" fill="#53D258"/>
<path d="M428.712 24.08V24.816H425.512V28.128H424.744V24.816H421.528V24.08H424.744V20.832H425.512V24.08H428.712Z" fill="#52FF00"/>
<path d="M441.768 27.056C441.768 28.8 440.456 30.016 438.472 30.128V31.536H437.8V30.128C435.624 30.016 434.296 28.704 434.296 26.736H435.096C435.096 28.368 436.328 29.376 438.136 29.376C439.768 29.376 440.984 28.432 440.984 27.056C440.984 25.504 439.56 25.184 438.024 24.864C436.36 24.496 434.52 24.096 434.52 22.016C434.52 20.32 435.768 19.232 437.704 19.12V17.792H438.408V19.12C440.296 19.248 441.48 20.448 441.48 22.272H440.712C440.712 20.768 439.608 19.856 438.04 19.856C436.408 19.856 435.304 20.688 435.304 21.984C435.304 23.456 436.728 23.744 438.232 24.096C439.944 24.464 441.768 24.896 441.768 27.056ZM448.646 24.272C449.83 24.704 450.598 25.744 450.598 27.056C450.598 28.896 449.11 30.176 446.95 30.176C444.789 30.176 443.318 28.928 443.318 27.056C443.318 25.76 444.07 24.72 445.27 24.272C444.342 23.856 443.766 22.96 443.766 21.872C443.766 20.288 445.062 19.2 446.95 19.2C448.854 19.2 450.134 20.288 450.134 21.872C450.134 22.96 449.542 23.872 448.646 24.272ZM444.518 21.872C444.518 23.152 445.542 23.952 446.95 23.952C448.358 23.952 449.382 23.152 449.382 21.872C449.382 20.688 448.406 19.856 446.95 19.856C445.494 19.856 444.518 20.688 444.518 21.872ZM446.95 29.488C448.662 29.488 449.814 28.512 449.814 27.088C449.814 25.568 448.614 24.624 446.95 24.624C445.286 24.624 444.086 25.568 444.086 27.088C444.086 28.512 445.238 29.488 446.95 29.488ZM456.428 30.176C453.98 30.176 452.428 28.064 452.428 24.688C452.428 21.296 453.964 19.2 456.428 19.2C458.876 19.2 460.412 21.296 460.412 24.688C460.412 28.064 458.86 30.176 456.428 30.176ZM456.428 29.456C458.412 29.456 459.644 27.648 459.644 24.688C459.644 21.728 458.412 19.92 456.428 19.92C454.428 19.92 453.196 21.728 453.196 24.688C453.196 27.648 454.428 29.456 456.428 29.456ZM462.105 31.872V31.328C462.569 31.088 462.729 30.72 462.729 30H462.057V28.8H463.209V29.92C463.209 31.008 462.857 31.536 462.105 31.872ZM468.866 30.176C466.418 30.176 464.866 28.064 464.866 24.688C464.866 21.296 466.402 19.2 468.866 19.2C471.314 19.2 472.85 21.296 472.85 24.688C472.85 28.064 471.298 30.176 468.866 30.176ZM468.866 29.456C470.85 29.456 472.082 27.648 472.082 24.688C472.082 21.728 470.85 19.92 468.866 19.92C466.866 19.92 465.634 21.728 465.634 24.688C465.634 27.648 466.866 29.456 468.866 29.456ZM478.725 30.176C476.277 30.176 474.725 28.064 474.725 24.688C474.725 21.296 476.261 19.2 478.725 19.2C481.173 19.2 482.709 21.296 482.709 24.688C482.709 28.064 481.157 30.176 478.725 30.176ZM478.725 29.456C480.709 29.456 481.941 27.648 481.941 24.688C481.941 21.728 480.709 19.92 478.725 19.92C476.725 19.92 475.493 21.728 475.493 24.688C475.493 27.648 476.725 29.456 478.725 29.456ZM488.584 30.176C486.136 30.176 484.584 28.064 484.584 24.688C484.584 21.296 486.12 19.2 488.584 19.2C491.032 19.2 492.568 21.296 492.568 24.688C492.568 28.064 491.016 30.176 488.584 30.176ZM488.584 29.456C490.568 29.456 491.8 27.648 491.8 24.688C491.8 21.728 490.568 19.92 488.584 19.92C486.584 19.92 485.352 21.728 485.352 24.688C485.352 27.648 486.584 29.456 488.584 29.456Z" fill="white"/>
<defs>
<linearGradient id="paint0_linear_841_42" x1="246.757" y1="-318.712" x2="246.757" y2="180.829" gradientUnits="userSpaceOnUse">
<stop stop-color="#53D258" stop-opacity="0.82"/>
<stop offset="1" stop-color="#53D258" stop-opacity="0"/>
</linearGradient>
</defs>
</svg>
