<svg width="17" height="15" viewBox="0 0 17 15" fill="none" xmlns="http://www.w3.org/2000/svg">
<path d="M15.7188 3.07031H2.59375C2.37619 3.07031 2.16754 2.98389 2.0137 2.83005C1.85986 2.67621 1.77344 2.46756 1.77344 2.25C1.77344 2.03244 1.85986 1.82379 2.0137 1.66995C2.16754 1.51611 2.37619 1.42969 2.59375 1.42969H13.75C13.8805 1.42969 14.0057 1.37783 14.098 1.28553C14.1903 1.19323 14.2422 1.06804 14.2422 0.9375C14.2422 0.806964 14.1903 0.681774 14.098 0.589471C14.0057 0.497168 13.8805 0.445313 13.75 0.445312H2.59375C2.11512 0.445312 1.65609 0.635449 1.31764 0.973893C0.979199 1.31234 0.789062 1.77137 0.789062 2.25V12.75C0.789062 13.2286 0.979199 13.6877 1.31764 14.0261C1.65609 14.3646 2.11512 14.5547 2.59375 14.5547H15.7188C16.0233 14.5547 16.3154 14.4337 16.5308 14.2183C16.7462 14.0029 16.8672 13.7108 16.8672 13.4062V4.21875C16.8672 3.91417 16.7462 3.62206 16.5308 3.40668C16.3154 3.19131 16.0233 3.07031 15.7188 3.07031ZM15.8828 13.4062C15.8828 13.4498 15.8655 13.4915 15.8348 13.5223C15.804 13.553 15.7623 13.5703 15.7188 13.5703H2.59375C2.37619 13.5703 2.16754 13.4839 2.0137 13.33C1.85986 13.1762 1.77344 12.9676 1.77344 12.75V3.85699C2.02724 3.98726 2.30847 4.05504 2.59375 4.05469H15.7188C15.7623 4.05469 15.804 4.07197 15.8348 4.10274C15.8655 4.13351 15.8828 4.17524 15.8828 4.21875V13.4062ZM13.5859 8.48438C13.5859 8.64662 13.5378 8.80522 13.4477 8.94012C13.3576 9.07502 13.2294 9.18016 13.0795 9.24225C12.9297 9.30433 12.7647 9.32058 12.6056 9.28893C12.4465 9.25727 12.3003 9.17915 12.1856 9.06442C12.0709 8.9497 11.9927 8.80353 11.9611 8.64441C11.9294 8.48528 11.9457 8.32035 12.0078 8.17046C12.0698 8.02056 12.175 7.89245 12.3099 7.80231C12.4448 7.71217 12.6034 7.66406 12.7656 7.66406C12.9832 7.66406 13.1918 7.75049 13.3457 7.90433C13.4995 8.05816 13.5859 8.26681 13.5859 8.48438Z" fill="white"/>
</svg>
