<svg width="28" height="28" viewBox="0 0 28 28" fill="none" xmlns="http://www.w3.org/2000/svg">
<path d="M2.33337 25.6667H22.1667M4.08337 25.6667V5.83337C4.08337 3.50004 5.64671 2.33337 7.58337 2.33337H16.9167C18.8534 2.33337 20.4167 3.50004 20.4167 5.83337V25.6667H4.08337Z" stroke="#9B9BA6" stroke-width="2" stroke-linecap="round" stroke-linejoin="round"/>
<path d="M7.58337 15.1667H11.0834M20.4167 18.6783L25.6667 18.6667V11.6667L23.3334 10.5M9.78837 11.6667H14.7234C15.9367 11.6667 16.9284 11.0833 16.9284 9.46166V8.02666C16.9284 6.40499 15.9367 5.82166 14.7234 5.82166H9.78837C8.57504 5.82166 7.58337 6.40499 7.58337 8.02666V9.46166C7.58337 11.0833 8.57504 11.6667 9.78837 11.6667Z" stroke="#9B9BA6" stroke-width="2" stroke-linecap="round" stroke-linejoin="round"/>
</svg>
