<svg width="27" height="28" viewBox="0 0 27 28" fill="none" xmlns="http://www.w3.org/2000/svg">
<path d="M25.626 17.0241C23.9563 23.7214 17.1731 27.7972 10.4751 26.1271C3.77983 24.4574 -0.295988 17.6738 1.3744 10.9771C3.04332 4.27909 9.82655 0.202966 16.5225 1.87262C23.2201 3.54227 27.2956 10.3267 25.6258 17.0242L25.6259 17.0241H25.626Z" stroke="#F7931A"/>
<path fill-rule="evenodd" clip-rule="evenodd" d="M19.0127 12.219C19.2615 10.5553 17.9949 9.66102 16.2629 9.06444L16.8248 6.81086L15.453 6.46903L14.906 8.66328C14.5454 8.57333 14.175 8.48858 13.8069 8.40456L14.3578 6.19583L12.9869 5.854L12.4247 8.10685C12.1262 8.0389 11.8331 7.97175 11.5487 7.90099L11.5503 7.8939L9.65855 7.42149L9.29363 8.88668C9.29363 8.88668 10.3114 9.11998 10.29 9.13434C10.8455 9.27299 10.9459 9.64073 10.9292 9.9322L10.2892 12.4996C10.3275 12.5093 10.3771 12.5233 10.4318 12.5453L10.392 12.5354C10.3582 12.5269 10.323 12.5181 10.2868 12.5095L9.38975 16.106C9.32186 16.2747 9.14954 16.528 8.76116 16.4318C8.7749 16.4518 7.76409 16.183 7.76409 16.183L7.08301 17.7533L8.86821 18.1983C9.06364 18.2474 9.25675 18.2977 9.44791 18.3475L9.4481 18.3476C9.58174 18.3824 9.71442 18.417 9.84627 18.4507L9.2786 20.7301L10.6488 21.072L11.211 18.8167C11.5853 18.9184 11.9486 19.0121 12.3043 19.1005L11.744 21.345L13.1159 21.6869L13.6835 19.4117C16.0227 19.8544 17.7816 19.6759 18.522 17.5601C19.1186 15.8566 18.4923 14.874 17.2616 14.2333C18.158 14.0265 18.8332 13.437 19.0132 12.2191L19.0127 12.2188L19.0127 12.219ZM15.8786 16.6142C15.4897 18.1771 13.0433 17.5309 11.924 17.2353C11.8233 17.2087 11.7333 17.1849 11.6566 17.1659L12.4099 14.146C12.5034 14.1694 12.6177 14.195 12.7472 14.2241C13.905 14.4839 16.2771 15.0163 15.8787 16.6142H15.8786ZM12.9793 12.8225C13.9125 13.0715 15.9482 13.6148 16.3027 12.1943H16.3029C16.6649 10.7415 14.6865 10.3035 13.7203 10.0896C13.6116 10.0655 13.5157 10.0443 13.4374 10.0247L12.7544 12.7636C12.8189 12.7796 12.8945 12.7998 12.9793 12.8225Z" fill="white"/>
</svg>
