<svg width="25" height="26" viewBox="0 0 25 26" fill="none" xmlns="http://www.w3.org/2000/svg">
<g filter="url(#filter0_d_1086_2666)">
<path d="M12.5 0.5C13.2803 0.5 14.0329 0.599609 14.7578 0.798828C15.4827 0.998047 16.1606 1.28304 16.7915 1.65381C17.4224 2.02458 17.9951 2.46729 18.5098 2.98193C19.0244 3.49658 19.4671 4.0721 19.8379 4.7085C20.2087 5.34489 20.4937 6.02279 20.6929 6.74219C20.8921 7.46159 20.9945 8.21419 21 9C21 9.78027 20.9004 10.5329 20.7012 11.2578C20.502 11.9827 20.217 12.6606 19.8462 13.2915C19.4754 13.9224 19.0327 14.4951 18.5181 15.0098C18.0034 15.5244 17.4279 15.9671 16.7915 16.3379C16.1551 16.7087 15.4772 16.9937 14.7578 17.1929C14.0384 17.3921 13.2858 17.4945 12.5 17.5C11.7197 17.5 10.9671 17.4004 10.2422 17.2012C9.51725 17.002 8.83936 16.717 8.2085 16.3462C7.57764 15.9754 7.00488 15.5327 6.49023 15.0181C5.97559 14.5034 5.53288 13.9279 5.16211 13.2915C4.79134 12.6551 4.50635 11.98 4.30713 11.2661C4.10791 10.5522 4.00553 9.79688 4 9C4 8.21973 4.09961 7.46712 4.29883 6.74219C4.49805 6.01725 4.78304 5.33936 5.15381 4.7085C5.52458 4.07764 5.96729 3.50488 6.48193 2.99023C6.99658 2.47559 7.5721 2.03288 8.2085 1.66211C8.84489 1.29134 9.52002 1.00635 10.2339 0.807129C10.9478 0.60791 11.7031 0.505534 12.5 0.5ZM12.5 16.4375C13.1807 16.4375 13.8364 16.349 14.4673 16.1719C15.0981 15.9948 15.6903 15.7458 16.2437 15.4248C16.797 15.1038 17.3006 14.7137 17.7544 14.2544C18.2082 13.7951 18.5955 13.2943 18.9165 12.752C19.2375 12.2096 19.4893 11.6175 19.6719 10.9756C19.8545 10.3337 19.943 9.67513 19.9375 9C19.9375 8.31934 19.849 7.66357 19.6719 7.03271C19.4948 6.40186 19.2458 5.80973 18.9248 5.25635C18.6038 4.70296 18.2137 4.19938 17.7544 3.74561C17.2951 3.29183 16.7943 2.90446 16.252 2.5835C15.7096 2.26253 15.1175 2.01074 14.4756 1.82812C13.8337 1.64551 13.1751 1.55697 12.5 1.5625C11.8193 1.5625 11.1636 1.65104 10.5327 1.82812C9.90186 2.00521 9.30973 2.25423 8.75635 2.5752C8.20296 2.89616 7.69938 3.2863 7.24561 3.74561C6.79183 4.20492 6.40446 4.70573 6.0835 5.24805C5.76253 5.79036 5.51074 6.38249 5.32812 7.02441C5.14551 7.66634 5.05697 8.32487 5.0625 9C5.0625 9.68066 5.15104 10.3364 5.32812 10.9673C5.50521 11.5981 5.75423 12.1903 6.0752 12.7437C6.39616 13.297 6.7863 13.8006 7.24561 14.2544C7.70492 14.7082 8.20573 15.0955 8.74805 15.4165C9.29036 15.7375 9.88249 15.9893 10.5244 16.1719C11.1663 16.3545 11.8249 16.443 12.5 16.4375ZM17.4556 9.13281L17.854 7.9375H18.4766L17.771 10.0625H17.1484L16.75 8.86719L16.3516 10.0625H15.729L15.0234 7.9375H15.646L16.0444 9.13281L16.4429 7.9375H17.0571L17.4556 9.13281ZM13.604 7.9375H14.2266L13.521 10.0625H12.8984L12.5 8.86719L12.1016 10.0625H11.479L10.7734 7.9375H11.396L11.7944 9.13281L12.1929 7.9375H12.8071L13.2056 9.13281L13.604 7.9375ZM9.354 7.9375H9.97656L9.271 10.0625H8.64844L8.25 8.86719L7.85156 10.0625H7.229L6.52344 7.9375H7.146L7.54443 9.13281L7.94287 7.9375H8.55713L8.95557 9.13281L9.354 7.9375Z" fill="white"/>
</g>
<defs>
<filter id="filter0_d_1086_2666" x="0" y="0.5" width="25" height="25" filterUnits="userSpaceOnUse" color-interpolation-filters="sRGB">
<feFlood flood-opacity="0" result="BackgroundImageFix"/>
<feColorMatrix in="SourceAlpha" type="matrix" values="0 0 0 0 0 0 0 0 0 0 0 0 0 0 0 0 0 0 127 0" result="hardAlpha"/>
<feOffset dy="4"/>
<feGaussianBlur stdDeviation="2"/>
<feComposite in2="hardAlpha" operator="out"/>
<feColorMatrix type="matrix" values="0 0 0 0 0 0 0 0 0 0 0 0 0 0 0 0 0 0 0.25 0"/>
<feBlend mode="normal" in2="BackgroundImageFix" result="effect1_dropShadow_1086_2666"/>
<feBlend mode="normal" in="SourceGraphic" in2="effect1_dropShadow_1086_2666" result="shape"/>
</filter>
</defs>
</svg>
