<svg width="30" height="30" viewBox="0 0 30 30" fill="none" xmlns="http://www.w3.org/2000/svg">
<path d="M13.6666 25.6667C16.8492 25.6667 19.9015 24.4024 22.1519 22.1519C24.4023 19.9015 25.6666 16.8493 25.6666 13.6667C25.6666 10.4841 24.4023 7.43182 22.1519 5.18138C19.9015 2.93095 16.8492 1.66666 13.6666 1.66666C10.484 1.66666 7.43178 2.93095 5.18134 5.18138C2.93091 7.43182 1.66663 10.4841 1.66663 13.6667C1.66663 16.8493 2.93091 19.9015 5.18134 22.1519C7.43178 24.4024 10.484 25.6667 13.6666 25.6667ZM24.24 26.5867C24.9466 28.72 26.56 28.9333 27.8 27.0667C28.9333 25.36 28.1866 23.96 26.1333 23.96C24.6133 23.9467 23.76 25.1333 24.24 26.5867Z" stroke="#E4D1D6" stroke-width="2" stroke-linecap="round" stroke-linejoin="round"/>
</svg>
