<svg width="804" height="135" viewBox="0 0 804 135" fill="none" xmlns="http://www.w3.org/2000/svg">
<g clip-path="url(#clip0_1422_619)">
<path d="M219.116 92.4087V104.526H170.439V27.4852H184.442V92.4087H219.116Z" fill="#563AFF"/>
<path d="M227.007 46.3842V104.526H240.454V46.3842H227.007Z" fill="#563AFF"/>
<path d="M254.68 31.0427L268.127 28.8193V46.3842H288.798V57.6124H268.127V81.2917C268.127 85.9608 268.866 89.2959 270.35 91.297C271.833 93.2981 274.35 94.2986 277.907 94.2986C280.352 94.2986 282.522 94.037 284.411 93.5204C286.3 93.0038 287.804 92.5199 288.909 92.0752L291.132 102.748C289.576 103.415 287.536 104.101 285.019 104.801C282.502 105.507 279.534 105.86 276.129 105.86C271.977 105.86 268.519 105.304 265.741 104.193C262.962 103.081 260.759 101.466 259.125 99.3536C257.497 97.2413 256.347 94.6844 255.68 91.6828C255.013 88.6812 254.68 85.2546 254.68 81.3963V31.0427Z" fill="#563AFF"/>
<path d="M350.81 75.3996C350.81 79.9969 350.143 84.1821 348.81 87.9619C347.476 91.7417 345.587 94.9656 343.142 97.6337C340.697 100.302 337.755 102.375 334.303 103.859C330.858 105.344 327.06 106.083 322.915 106.083C318.771 106.083 314.986 105.344 311.58 103.859C308.174 102.375 305.245 100.302 302.8 97.6337C300.355 94.9656 298.446 91.7417 297.08 87.9619C295.707 84.1821 295.027 79.9969 295.027 75.3996C295.027 70.8024 295.714 66.6368 297.08 62.8962C298.453 59.1557 300.375 55.9514 302.859 53.2767C305.337 50.6087 308.285 48.5553 311.697 47.1101C315.103 45.6648 318.849 44.939 322.922 44.939C326.995 44.939 330.754 45.6648 334.199 47.1101C337.644 48.5553 340.592 50.6087 343.037 53.2767C345.482 55.9448 347.391 59.1491 348.764 62.8962C350.137 66.6368 350.816 70.809 350.816 75.3996H350.81ZM337.029 75.3996C337.029 69.6188 335.787 65.0412 333.303 61.6668C330.819 58.2925 327.354 56.6118 322.915 56.6118C318.477 56.6118 315.005 58.299 312.521 61.6668C310.037 65.0412 308.801 69.6188 308.801 75.3996C308.801 81.1805 310.043 85.8889 312.521 89.2959C315.005 92.703 318.47 94.4098 322.915 94.4098C327.361 94.4098 330.825 92.703 333.303 89.2959C335.781 85.8889 337.029 81.2524 337.029 75.3996Z" fill="#563AFF"/>
<path d="M377.038 94.8544C380.594 94.8544 383.183 94.4294 384.817 93.5727C386.445 92.7226 387.262 91.2577 387.262 89.1847C387.262 87.2556 386.393 85.6665 384.654 84.4044C382.915 83.1423 380.045 81.7756 376.038 80.2911C373.593 79.4018 371.35 78.4535 369.311 77.4595C367.271 76.459 365.513 75.2884 364.035 73.9544C362.551 72.6204 361.388 71.0117 360.531 69.1218C359.681 67.2319 359.25 64.9169 359.25 62.1769C359.25 56.8407 361.211 52.6359 365.14 49.5558C369.069 46.4823 374.403 44.9455 381.143 44.9455C384.549 44.9455 387.811 45.2594 390.923 45.8937C394.035 46.5215 396.368 47.1362 397.924 47.7248L395.479 58.6194C393.995 57.9524 392.106 57.3377 389.812 56.7884C387.517 56.2325 384.85 55.9514 381.81 55.9514C379.071 55.9514 376.848 56.4157 375.142 57.3377C373.436 58.2663 372.586 59.6919 372.586 61.6145C372.586 62.5758 372.756 63.4325 373.089 64.1714C373.423 64.9104 373.998 65.597 374.809 66.2248C375.626 66.8526 376.698 67.4869 378.031 68.1147C379.365 68.7425 380.993 69.3964 382.921 70.0569C386.105 71.2405 388.811 72.4111 391.034 73.562C393.257 74.713 395.094 76.0078 396.532 77.453C397.977 78.8982 399.029 80.5462 399.702 82.3968C400.369 84.2475 400.703 86.4709 400.703 89.067C400.703 94.6255 398.65 98.8304 394.532 101.682C390.42 104.533 384.549 105.958 376.92 105.958C371.808 105.958 367.696 105.533 364.584 104.677C361.473 103.82 359.289 103.14 358.027 102.623L360.361 91.3951C362.362 92.2125 364.748 92.9907 367.526 93.7296C370.304 94.4686 373.468 94.8413 377.031 94.8413L377.038 94.8544Z" fill="#563AFF"/>
<path d="M411.038 104.526V20.4815L424.485 18.2581V47.0512C425.969 46.5346 427.689 46.0899 429.656 45.7172C431.617 45.3444 433.566 45.1613 435.487 45.1613C440.155 45.1613 444.025 45.8087 447.104 47.1101C450.177 48.4049 452.641 50.2229 454.491 52.5574C456.341 54.892 457.662 57.6909 458.44 60.9475C459.218 64.2107 459.61 67.8401 459.61 71.8422V104.526H446.163V73.9544C446.163 70.8417 445.96 68.1932 445.548 66.0025C445.143 63.8183 444.476 62.0396 443.548 60.6663C442.62 59.293 441.378 58.2991 439.822 57.6647C438.266 57.0369 436.337 56.723 434.043 56.723C432.265 56.723 430.447 56.9062 428.597 57.2789C426.747 57.6516 425.374 57.9852 424.485 58.2794V104.526H411.038Z" fill="#563AFF"/>
<path d="M473.606 46.3842V104.526H487.054V46.3842H473.606Z" fill="#563AFF"/>
<path d="M544.953 94.0697C549.994 94.0697 553.655 93.2196 555.956 91.5128C558.25 89.806 559.401 87.3995 559.401 84.2867C559.401 82.436 559.009 80.8404 558.231 79.5064C557.453 78.1723 556.341 76.9691 554.897 75.8901C553.452 74.8176 551.693 73.8171 549.615 72.8885C547.542 71.9599 545.169 71.0574 542.502 70.1615C539.835 69.2002 537.259 68.1409 534.781 66.9964C532.297 65.8455 530.114 64.4199 528.225 62.7197C526.335 61.0129 524.819 58.9791 523.668 56.6053C522.517 54.2315 521.949 51.3803 521.949 48.0452C521.949 41.0807 524.354 35.6137 529.172 31.6508C533.99 27.6879 540.547 25.7 548.843 25.7C553.661 25.7 557.936 26.2362 561.676 27.3087C565.415 28.3811 568.363 29.5517 570.514 30.8138L566.18 42.1532C563.663 40.7472 560.904 39.6682 557.904 38.9292C554.903 38.1903 551.811 37.8175 548.621 37.8175C544.842 37.8175 541.894 38.5957 539.782 40.1521C537.671 41.7085 536.618 43.8926 536.618 46.7111C536.618 48.4179 536.971 49.8828 537.677 51.1056C538.377 52.3285 539.384 53.4206 540.678 54.3819C541.972 55.3432 543.489 56.2325 545.235 57.05C546.973 57.8674 548.882 58.6456 550.961 59.3846C554.589 60.7186 557.832 62.0723 560.689 63.439C563.539 64.8123 565.945 66.4406 567.912 68.3305C569.874 70.2204 571.371 72.4438 572.41 75.0007C573.449 77.5576 573.966 80.6508 573.966 84.2802C573.966 91.2447 571.501 96.6397 566.579 100.459C561.65 104.278 554.446 106.181 544.967 106.181C541.776 106.181 538.874 105.978 536.239 105.573C533.611 105.167 531.277 104.664 529.238 104.075C527.198 103.48 525.44 102.872 523.956 102.237C522.472 101.61 521.288 101.034 520.399 100.518L524.511 89.067C526.512 90.1787 529.218 91.2904 532.624 92.4021C536.03 93.5138 540.142 94.0697 544.96 94.0697H544.953Z" fill="#563AFF"/>
<path d="M635.751 75.5108C635.751 79.9576 635.175 84.0317 634.031 87.7395C632.881 91.4474 631.233 94.6321 629.089 97.3002C626.938 99.9683 624.258 102.041 621.029 103.526C617.806 105.01 614.158 105.749 610.085 105.749C607.34 105.749 604.823 105.416 602.528 104.749C600.233 104.082 598.344 103.343 596.86 102.525V125.093H583.413V48.2741C586.152 47.5351 589.525 46.8289 593.526 46.1618C597.527 45.4948 601.75 45.1613 606.195 45.1613C610.641 45.1613 614.897 45.8676 618.531 47.2736C622.16 48.6795 625.258 50.7002 627.814 53.3291C630.37 55.9579 632.332 59.1492 633.704 62.8897C635.077 66.6303 635.757 70.8417 635.757 75.5043L635.751 75.5108ZM621.97 75.7332C621.97 69.73 620.617 65.0608 617.91 61.7257C615.204 58.3906 610.857 56.723 604.855 56.723C603.594 56.723 602.28 56.7753 600.907 56.8865C599.534 56.9977 598.187 57.2396 596.847 57.6059V90.8458C598.03 91.6632 599.606 92.4218 601.567 93.128C603.528 93.8343 605.627 94.1874 607.849 94.1874C612.739 94.1874 616.315 92.5199 618.571 89.1848C620.826 85.8497 621.963 81.3636 621.963 75.7332H621.97Z" fill="#563AFF"/>
<path d="M666.75 44.939C671.195 44.939 674.935 45.4948 677.974 46.6065C681.014 47.7182 683.44 49.2746 685.25 51.2757C687.068 53.2767 688.362 55.7029 689.14 58.5541C689.918 61.4052 690.31 64.5376 690.31 67.9512V103.192C688.238 103.637 685.107 104.173 680.916 104.801C676.732 105.429 672.006 105.749 666.743 105.749C663.259 105.749 660.075 105.416 657.186 104.749C654.296 104.082 651.832 103.009 649.799 101.525C647.759 100.04 646.171 98.1176 645.02 95.7438C643.87 93.37 643.301 90.4469 643.301 86.9613C643.301 83.4758 643.948 80.8077 645.242 78.5124C646.537 76.2171 648.302 74.3402 650.518 72.9016C652.741 71.4564 655.316 70.4166 658.245 69.7888C661.167 69.161 664.227 68.8406 667.417 68.8406C668.901 68.8406 670.45 68.9321 672.084 69.1218C673.712 69.3049 675.458 69.6188 677.308 70.0635V67.84C677.308 66.2837 677.125 64.7992 676.752 63.3932C676.379 61.9873 675.732 60.7448 674.81 59.6723C673.882 58.5998 672.66 57.7628 671.143 57.1677C669.626 56.5726 667.718 56.2783 665.423 56.2783C662.311 56.2783 659.461 56.5007 656.866 56.9454C654.27 57.39 652.159 57.9067 650.531 58.5017L648.864 47.6071C650.57 47.012 653.048 46.4234 656.31 45.8283C659.566 45.2332 663.05 44.939 666.757 44.939H666.75ZM667.861 95.0768C672.013 95.0768 675.157 94.8544 677.308 94.4097V79.5129C676.569 79.2906 675.49 79.0682 674.085 78.8459C672.679 78.6236 671.117 78.5124 669.417 78.5124C667.933 78.5124 666.436 78.6236 664.92 78.8459C663.403 79.0682 662.03 79.4737 660.808 80.0688C659.585 80.6639 658.598 81.4944 657.859 82.5734C657.121 83.6458 656.748 84.9995 656.748 86.6344C656.748 89.8191 657.748 92.0294 659.749 93.2523C661.749 94.4752 664.455 95.0833 667.861 95.0833V95.0768Z" fill="#563AFF"/>
<path d="M701.312 75.5108C701.312 71.2144 701.979 67.1927 703.313 63.4456C704.646 59.705 706.555 56.4615 709.033 53.7149C711.517 50.9749 714.537 48.8234 718.094 47.267C721.65 45.7106 725.651 44.9324 730.096 44.9324C735.574 44.9324 740.765 45.933 745.655 47.934L742.765 58.9399C741.209 58.2729 739.451 57.717 737.49 57.2723C735.529 56.8277 733.43 56.6053 731.207 56.6053C725.945 56.6053 721.944 58.2533 719.205 61.5491C716.459 64.845 715.093 69.5011 715.093 75.4977C715.093 81.4944 716.387 85.8562 718.983 89.2305C721.571 92.6049 725.945 94.2921 732.097 94.2921C734.391 94.2921 736.653 94.0697 738.876 93.625C741.098 93.1804 743.027 92.6245 744.655 91.9575L746.544 103.075C745.06 103.813 742.824 104.48 739.824 105.076C736.823 105.671 733.731 105.965 730.541 105.965C725.572 105.965 721.258 105.206 717.597 103.683C713.929 102.166 710.89 100.053 708.484 97.346C706.078 94.6386 704.28 91.4147 703.097 87.6742C701.914 83.9336 701.319 79.8726 701.319 75.4977L701.312 75.5108Z" fill="#563AFF"/>
<path d="M751.545 75.7331C751.545 70.6193 752.303 66.1333 753.82 62.2815C755.337 58.4298 757.357 55.2255 759.88 52.662C762.397 50.1051 765.286 48.176 768.548 46.8812C771.81 45.5864 775.144 44.9324 778.55 44.9324C786.552 44.9324 792.795 47.4174 797.273 52.3808C801.758 57.3443 804 64.76 804 74.6149C804 75.3539 803.98 76.1909 803.948 77.1195C803.909 78.0481 803.856 78.8786 803.778 79.6241H765.437C765.809 84.2933 767.457 87.9096 770.379 90.4665C773.307 93.0234 777.55 94.3051 783.107 94.3051C786.362 94.3051 789.343 94.0109 792.05 93.4158C794.756 92.8207 796.881 92.1929 798.443 91.5259L800.221 102.532C799.483 102.904 798.463 103.29 797.162 103.696C795.868 104.101 794.384 104.474 792.717 104.807C791.05 105.141 789.252 105.422 787.33 105.645C785.401 105.867 783.44 105.978 781.44 105.978C776.328 105.978 771.882 105.219 768.104 103.696C764.325 102.179 761.214 100.066 758.769 97.359C756.324 94.6517 754.506 91.467 753.323 87.7984C752.14 84.1298 751.545 80.108 751.545 75.7331ZM790.553 69.73C790.553 67.8793 790.291 66.1137 789.775 64.4461C789.258 62.7785 788.494 61.3333 787.5 60.1105C786.5 58.8876 785.277 57.9263 783.833 57.22C782.388 56.5138 780.668 56.1606 778.668 56.1606C776.668 56.1606 774.778 56.5465 773.223 57.3312C771.667 58.1159 770.353 59.1295 769.274 60.3851C768.202 61.6472 767.365 63.0924 766.777 64.7208C766.182 66.3491 765.777 68.0166 765.554 69.7234H790.559L790.553 69.73Z" fill="#563AFF"/>
<path d="M122.98 101.518C119.227 95.5283 114.638 89.0935 109.382 82.4102C108.983 81.9066 108.578 81.3966 108.179 80.8865C107.682 82.4298 107.101 83.9338 106.44 85.3987C106.395 85.5033 106.342 85.6145 106.29 85.7191C106.205 85.9022 106.12 86.0853 106.028 86.2619C105.453 87.4848 104.813 88.6684 104.12 89.8259C104.466 90.3098 104.806 90.7872 105.139 91.2711C106.63 93.3964 108.003 95.4694 109.264 97.477C117.717 110.961 117.763 116.736 116.455 118.017C115.154 119.306 109.382 119.175 96.0199 110.53C94.0326 109.241 91.9799 107.835 89.8814 106.318C89.4107 105.978 88.9269 105.632 88.4497 105.279C83.5141 101.649 78.33 97.4443 73.0283 92.7948C72.9237 92.7032 72.8126 92.6051 72.708 92.5136C75.9374 89.4466 79.1668 86.275 82.3831 83.0183C85.3445 80.0102 88.234 76.9955 91.0189 73.9808C91.8883 73.0522 92.7382 72.1236 93.5749 71.195C93.7449 71.0185 93.9018 70.8419 94.0587 70.6653C94.9151 69.7237 95.7519 68.7885 96.5821 67.8534C100.701 63.2169 104.571 58.6263 108.16 54.1271C108.565 53.6171 108.964 53.107 109.369 52.6034C114.618 45.9201 119.214 39.4788 122.967 33.4887C133.067 17.3821 135.786 6.84704 131.053 2.17135C126.32 -2.49126 115.821 0.366469 99.8638 10.6922C93.928 14.5309 87.5607 19.2131 80.9515 24.5624C80.4481 24.9678 79.9513 25.3733 79.4479 25.7852C80.9972 26.2626 82.5073 26.8185 83.9782 27.4593C84.0828 27.5051 84.194 27.5509 84.2985 27.6032C84.4816 27.6817 84.6646 27.7667 84.8477 27.8582C86.0767 28.4206 87.273 29.0419 88.4366 29.7154C88.9139 29.3623 89.3976 29.0092 89.8683 28.6757C91.9733 27.1585 94.0195 25.7525 96.0068 24.4643C105.747 18.1603 111.461 16.3881 114.337 16.3881C115.409 16.3881 116.089 16.63 116.442 16.9766C117.75 18.2649 117.697 24.0392 109.245 37.5235C107.99 39.5311 106.617 41.5976 105.126 43.7229C104.793 44.2003 104.453 44.6842 104.1 45.1746C100.334 50.4454 95.9284 56.017 91.0319 61.6998C90.2344 62.6284 89.4238 63.5504 88.6066 64.479C88.4301 64.6752 88.2536 64.8845 88.0771 65.0807C87.2665 65.9962 86.4428 66.9117 85.606 67.8272C82.7296 70.9858 79.7225 74.1639 76.6107 77.3225C73.3029 80.6838 69.9623 83.9208 66.6479 87.0139C63.327 83.9208 59.993 80.6838 56.6851 77.3225C53.5733 74.1639 50.5662 70.9858 47.6898 67.8272C46.853 66.9117 46.0293 65.9962 45.2187 65.0807C45.0422 64.8845 44.8657 64.6752 44.6892 64.479C43.8655 63.5504 43.0614 62.6218 42.2639 61.6998C37.3674 56.017 32.9613 50.4454 29.1958 45.1746C28.8428 44.6842 28.5029 44.2003 28.1695 43.7229C26.679 41.5976 25.3062 39.5311 24.051 37.5235C15.5983 24.0392 15.546 18.2649 16.8535 16.9766C17.1999 16.63 17.8864 16.3881 18.9585 16.3881C21.8349 16.3881 27.5485 18.1603 37.289 24.4643C39.2763 25.7525 41.329 27.1585 43.4275 28.6757C43.8982 29.0157 44.3819 29.3623 44.8592 29.7154C46.0293 29.0419 47.2191 28.4206 48.4481 27.8582C48.6312 27.7667 48.8142 27.6882 48.9973 27.6032C49.1019 27.5509 49.213 27.5051 49.3176 27.4593C50.7885 26.8185 52.2986 26.2561 53.8479 25.7852C53.3445 25.3733 52.8412 24.9613 52.3443 24.5624C45.7417 19.2066 39.3678 14.5309 33.432 10.6922C17.4876 0.366469 6.98872 -2.4978 2.25573 2.17135C-2.47726 6.84051 0.242247 17.3755 10.3423 33.4821C14.0947 39.4723 18.6904 45.9136 23.9399 52.5969C24.3452 53.1004 24.744 53.6105 25.1493 54.1206C28.7382 58.6132 32.6083 63.2104 36.7268 67.8469C37.557 68.782 38.4003 69.7237 39.2502 70.6588C39.4071 70.8354 39.5705 71.0185 39.7339 71.1885C40.5707 72.1171 41.4271 73.0457 42.29 73.9743C45.0814 76.989 47.9644 80.0037 50.9258 83.0118C54.1421 86.275 57.3715 89.4401 60.6009 92.507C60.4963 92.5986 60.3852 92.6967 60.2806 92.7882C54.9789 97.4378 49.7948 101.643 44.8592 105.272C44.3819 105.625 43.8982 105.978 43.4275 106.312C41.3225 107.829 39.2763 109.235 37.289 110.523C23.9268 119.168 18.1544 119.299 16.8535 118.011C15.546 116.723 15.5983 110.955 24.0445 97.4705C25.3062 95.4629 26.679 93.3899 28.1695 91.2645C28.5029 90.7872 28.8428 90.3033 29.1893 89.8193C28.4964 88.6619 27.8622 87.4782 27.2804 86.2553C27.1889 86.0788 27.1039 85.8957 27.0189 85.7126C26.9666 85.6079 26.9143 85.4968 26.8686 85.3921C26.2083 83.9273 25.6265 82.4232 25.1297 80.8799C24.7243 81.39 24.3256 81.9001 23.9268 82.4036C18.6708 89.0869 14.0817 95.5283 10.3293 101.512C3.45859 112.505 0.000367794 120.895 0.000367794 126.604C0.000367794 129.265 0.752155 131.345 2.25573 132.829C3.72662 134.274 5.74663 135 8.31578 135C14.0228 135 22.4298 131.43 33.4385 124.308C39.3744 120.47 45.7482 115.787 52.3574 110.438C52.8608 110.033 53.3511 109.627 53.861 109.215C57.9599 105.854 62.1372 102.238 66.3537 98.4187C66.4583 98.3271 66.5564 98.229 66.661 98.1375C66.7656 98.229 66.8636 98.3271 66.9682 98.4187C71.1782 102.238 75.3621 105.847 79.461 109.215C79.9643 109.627 80.4612 110.033 80.9645 110.438C87.5737 115.787 93.9476 120.476 99.8834 124.308C110.892 131.43 119.299 135 125.006 135C127.575 135 129.595 134.274 131.066 132.829C132.57 131.345 133.322 129.265 133.322 126.604C133.322 120.895 129.863 112.505 122.98 101.518Z" fill="#563AFF"/>
<path d="M111.781 40.2502C108.774 45.0502 105.093 50.2098 100.89 55.5656C100.57 55.971 100.243 56.3765 99.9225 56.7819C97.0526 60.3851 93.9474 64.0603 90.6526 67.7747C89.9858 68.5202 89.3125 69.2787 88.6261 70.0308C88.5019 70.1746 88.3711 70.3185 88.2404 70.4558C87.567 71.2013 86.8806 71.9468 86.1877 72.6923C83.9519 75.1054 81.6443 77.525 79.2647 79.9315C76.6106 82.6257 73.9434 85.2415 71.2761 87.7657C70.5374 88.4589 69.8053 89.1521 69.0731 89.8322C68.9293 89.963 68.7854 90.0938 68.6482 90.2245C67.9029 90.9112 67.1577 91.5978 66.4189 92.2714C63.0457 95.3318 59.6986 98.2223 56.4104 100.917C56.0051 101.243 55.6063 101.57 55.2075 101.897C49.9123 106.181 44.8067 109.934 40.0541 113.008C31.2353 118.71 24.5019 121.575 19.9258 121.575C17.8666 121.575 16.2519 120.993 15.0686 119.835C13.8592 118.645 13.2578 116.977 13.2578 114.846C13.2578 110.274 16.0296 103.552 21.5405 94.7564C23.2468 92.036 25.1687 89.1979 27.2868 86.2682C27.8621 87.4911 28.5027 88.6747 29.1957 89.8322C28.8492 90.3161 28.5093 90.7935 28.1759 91.2774C26.6854 93.4027 25.3126 95.4757 24.0509 97.4833C15.5982 110.968 15.5524 116.742 16.8599 118.024C18.1608 119.312 23.9332 119.181 37.2954 110.536C39.2827 109.248 41.3354 107.842 43.4339 106.325C43.9046 105.985 44.3883 105.638 44.8655 105.285C49.8012 101.655 54.9852 97.4506 60.287 92.8011C61.2022 91.9967 62.124 91.1728 63.0457 90.3422C63.2418 90.1657 63.4379 89.9826 63.6406 89.806C64.5427 88.9886 65.4514 88.1516 66.3601 87.3145C69.7791 84.1363 73.2177 80.8012 76.6302 77.3353C79.7419 74.1768 82.7491 70.9986 85.6255 67.8401C86.4622 66.9246 87.2859 66.009 88.0965 65.0935C88.2731 64.8973 88.4496 64.6881 88.6261 64.4919C89.4498 63.5633 90.2539 62.6347 91.0514 61.7126C95.9478 56.0299 100.354 50.4583 104.119 45.1875C104.472 44.697 104.812 44.2131 105.146 43.7357C106.636 41.6104 108.009 39.544 109.264 37.5364C117.717 24.052 117.769 18.2777 116.462 16.9895C116.115 16.6429 115.429 16.4009 114.357 16.4009C111.48 16.4009 105.767 18.1731 96.0263 24.4771C94.0389 25.7654 91.9862 27.1714 89.8878 28.6885C89.4171 29.0286 88.9333 29.3751 88.4561 29.7283C87.2859 29.0547 86.0962 28.4335 84.8671 27.8711C87.7632 25.7131 90.5742 23.7512 93.2741 22.0052C106.054 13.7328 114.468 11.444 118.253 15.178C122.045 18.9186 119.868 27.3545 111.781 40.2633V40.2502Z" fill="url(#paint0_linear_1422_619)"/>
<path d="M21.5469 40.2502C24.5541 45.0502 28.2346 50.2098 32.438 55.5656C32.7583 55.971 33.0852 56.3765 33.4055 56.7819C36.2754 60.3851 39.3806 64.0603 42.6754 67.7747C43.3422 68.5202 44.0155 69.2787 44.702 70.0308C44.8262 70.1746 44.9569 70.3185 45.0877 70.4558C45.761 71.2013 46.4474 71.9468 47.1404 72.6923C49.3761 75.1054 51.6838 77.525 54.0633 79.9315C56.7175 82.6257 59.3847 85.2415 62.0519 87.7657C62.7906 88.4589 63.5228 89.1521 64.2549 89.8322C64.3988 89.963 64.5426 90.0938 64.6799 90.2245C65.4251 90.9112 66.1704 91.5978 66.9091 92.2714C70.2823 95.3318 73.6294 98.2223 76.9177 100.917C77.323 101.243 77.7217 101.57 78.1205 101.897C83.4157 106.181 88.5213 109.934 93.2739 113.008C102.093 118.71 108.826 121.575 113.402 121.575C115.461 121.575 117.076 120.993 118.259 119.835C119.469 118.645 120.07 116.977 120.07 114.846C120.07 110.274 117.298 103.552 111.787 94.7564C110.081 92.036 108.159 89.1979 106.041 86.2682C105.466 87.4911 104.825 88.6747 104.132 89.8322C104.479 90.3161 104.819 90.7935 105.152 91.2774C106.643 93.4027 108.015 95.4757 109.277 97.4833C117.73 110.968 117.776 116.742 116.468 118.024C115.167 119.312 109.395 119.181 96.0326 110.536C94.0453 109.248 91.9926 107.842 89.8941 106.325C89.4235 105.985 88.9397 105.638 88.4625 105.285C83.5268 101.655 78.3428 97.4506 73.041 92.8011C72.1258 91.9967 71.2041 91.1728 70.2823 90.3422C70.0862 90.1657 69.8901 89.9826 69.6874 89.806C68.7853 88.9886 67.8766 88.1516 66.9679 87.3145C63.5489 84.1363 60.1103 80.8012 56.6979 77.3353C53.5861 74.1768 50.579 70.9986 47.7026 67.8401C46.8658 66.9246 46.0421 66.009 45.2315 65.0935C45.055 64.8973 44.8785 64.6881 44.702 64.4919C43.8783 63.5633 43.0742 62.6347 42.2766 61.7126C37.3802 56.0299 32.9741 50.4583 29.2086 45.1875C28.8556 44.697 28.5157 44.2131 28.1823 43.7357C26.6918 41.6104 25.3189 39.544 24.0638 37.5364C15.6111 24.052 15.5588 18.2777 16.8662 16.9895C17.2127 16.6429 17.8991 16.4009 18.9712 16.4009C21.8476 16.4009 27.5612 18.1731 37.3018 24.4771C39.2891 25.7654 41.3418 27.1714 43.4403 28.6885C43.9109 29.0286 44.3947 29.3751 44.8719 29.7283C46.0421 29.0547 47.2319 28.4335 48.4609 27.8711C45.5649 25.7131 42.7538 23.7512 40.0539 22.0052C27.2736 13.7328 18.8601 11.444 15.075 15.178C11.2834 18.9186 13.4603 27.3545 21.5469 40.2633V40.2502Z" fill="url(#paint1_linear_1422_619)"/>
<path d="M233.733 4.98956C233.733 12.7453 227.464 19.0493 219.73 19.0493C227.471 19.0493 233.733 28.4073 233.733 39.9494C233.733 28.4073 240.003 19.0493 247.73 19.0493C240.003 19.0493 233.733 12.7519 233.733 4.98956Z" fill="#563AFF"/>
<path d="M480.333 39.9428C480.333 28.4007 486.602 19.0428 494.329 19.0428C486.602 19.0428 480.333 12.7453 480.333 4.98303C480.333 12.7388 474.064 19.0428 466.33 19.0428C474.07 19.0428 480.333 28.4007 480.333 39.9428Z" fill="#563AFF"/>
</g>
<defs>
<linearGradient id="paint0_linear_1422_619" x1="33.1442" y1="37.7456" x2="135.77" y2="128.787" gradientUnits="userSpaceOnUse">
<stop offset="0.11" stop-color="#F9B7E6"/>
<stop offset="0.15" stop-color="#D49BEB"/>
<stop offset="0.2" stop-color="#AE7DF1"/>
<stop offset="0.26" stop-color="#8E65F6"/>
<stop offset="0.31" stop-color="#7552FA"/>
<stop offset="0.37" stop-color="#6344FC"/>
<stop offset="0.43" stop-color="#593CFE"/>
<stop offset="0.5" stop-color="#563AFF"/>
</linearGradient>
<linearGradient id="paint1_linear_1422_619" x1="100.184" y1="37.7456" x2="-2.44199" y2="128.787" gradientUnits="userSpaceOnUse">
<stop offset="0.13" stop-color="#F9B7E6"/>
<stop offset="0.16" stop-color="#D49BEB"/>
<stop offset="0.21" stop-color="#AE7DF1"/>
<stop offset="0.26" stop-color="#8E65F6"/>
<stop offset="0.32" stop-color="#7552FA"/>
<stop offset="0.37" stop-color="#6344FC"/>
<stop offset="0.43" stop-color="#593CFE"/>
<stop offset="0.5" stop-color="#563AFF"/>
</linearGradient>
<clipPath id="clip0_1422_619">
<rect width="804" height="135" fill="white"/>
</clipPath>
</defs>
</svg>
