<svg width="16" height="16" viewBox="0 0 16 16" fill="none" xmlns="http://www.w3.org/2000/svg">
<path d="M8.01339 1.93994C5.80673 1.93994 4.01339 3.73327 4.01339 5.93994V7.86661C4.01339 8.27328 3.84006 8.89327 3.63339 9.23994L2.86673 10.5133C2.39339 11.2999 2.72006 12.1733 3.58673 12.4666C6.46006 13.4266 9.56006 13.4266 12.4334 12.4666C13.2401 12.1999 13.5934 11.2466 13.1534 10.5133L12.3867 9.23994C12.1867 8.89327 12.0134 8.27328 12.0134 7.86661V5.93994C12.0134 3.73994 10.2134 1.93994 8.01339 1.93994Z" fill="#53D258"/>
<path d="M9.24694 2.13333C8.44075 1.90373 7.58647 1.90373 6.78027 2.13333C6.97361 1.64 7.45361 1.29333 8.01361 1.29333C8.57361 1.29333 9.05361 1.64 9.24694 2.13333Z" fill="#53D258"/>
<path d="M10.0137 12.7067C10.0137 13.8067 9.11367 14.7067 8.01367 14.7067C7.46701 14.7067 6.96034 14.48 6.60034 14.12C6.22578 13.7449 6.01487 13.2368 6.01367 12.7067" fill="#53D258"/>
</svg>
