<svg width="20" height="20" viewBox="0 0 20 20" fill="none" xmlns="http://www.w3.org/2000/svg">
<path d="M7.50033 18.3333H12.5003C16.667 18.3333 18.3337 16.6666 18.3337 12.5V7.49996C18.3337 3.33329 16.667 1.66663 12.5003 1.66663H7.50033C3.33366 1.66663 1.66699 3.33329 1.66699 7.49996V12.5C1.66699 16.6666 3.33366 18.3333 7.50033 18.3333Z" stroke="white" stroke-opacity="0.5" stroke-linecap="round" stroke-linejoin="round"/>
<path d="M14.9163 7.5417C13.0971 7.35844 11.2698 7.26666 9.44134 7.2667C8.35801 7.2667 7.27467 7.32503 6.19967 7.43337L5.08301 7.5417M8.09134 6.9917L8.20801 6.27503C8.29134 5.75837 8.35801 5.3667 9.28301 5.3667H10.7163C11.6413 5.3667 11.708 5.77503 11.7913 6.27503L11.908 6.98337M13.7413 7.60837L13.383 13.1084C13.3247 13.9667 13.2747 14.6334 11.7497 14.6334H8.24134C6.71634 14.6334 6.66634 13.9667 6.60801 13.1084L6.24967 7.60837" stroke="white" stroke-opacity="0.5" stroke-linecap="round" stroke-linejoin="round"/>
</svg>
