<svg width="64" height="100" viewBox="0 0 64 100" fill="none" xmlns="http://www.w3.org/2000/svg">
<path d="M32.1467 63.1227C42.9066 63.1227 52.4221 57.7034 58.1304 49.4522C52.3354 41.2499 42.7954 35.8857 32.0002 35.8857C21.2958 35.8857 11.8255 41.1581 6.01636 49.2442C11.7077 57.6177 21.2965 63.1227 32.1467 63.1227Z" fill="url(#paint0_linear_24_9)"/>
<path d="M32.1465 67.5389C20.4878 67.5389 10.1108 61.9545 3.5274 53.3179C1.27736 57.7035 0 62.6762 0 67.9426C0 85.6481 14.327 100 32 100C49.673 100 64 85.6481 64 67.9426C64 62.7619 62.7659 57.8747 60.5878 53.5442C53.9966 62.0523 43.7026 67.5389 32.1465 67.5389Z" fill="url(#paint1_linear_24_9)"/>
<path d="M5.13086 31.4757C5.13086 46.394 17.2505 58.5353 32.1466 58.5353C47.0438 58.5353 59.1623 46.394 59.1623 31.4757C59.1623 16.5514 47.0438 4.41002 32.1466 4.41002C17.2505 4.41002 5.13086 16.5514 5.13086 31.4757ZM63.5684 31.4757C63.5684 48.8283 49.4728 62.9515 32.1466 62.9515C14.8204 62.9515 0.724819 48.8283 0.724819 31.4757C0.724819 14.117 14.8204 1.14441e-05 32.1466 1.14441e-05C49.4728 1.14441e-05 63.5684 14.117 63.5684 31.4757Z" fill="url(#paint2_linear_24_9)"/>
<defs>
<linearGradient id="paint0_linear_24_9" x1="32.3952" y1="100.229" x2="32.3952" y2="0.45319" gradientUnits="userSpaceOnUse">
<stop stop-color="#00C9FF"/>
<stop offset="1" stop-color="#92FE9D"/>
</linearGradient>
<linearGradient id="paint1_linear_24_9" x1="32.395" y1="100" x2="32.395" y2="-0.234851" gradientUnits="userSpaceOnUse">
<stop stop-color="#00C9FF"/>
<stop offset="1" stop-color="#92FE9D"/>
</linearGradient>
<linearGradient id="paint2_linear_24_9" x1="32.5346" y1="100.688" x2="32.5345" y2="1.2954e-05" gradientUnits="userSpaceOnUse">
<stop stop-color="#00C9FF"/>
<stop offset="1" stop-color="#92FE9D"/>
</linearGradient>
</defs>
</svg>
