<svg width="550" height="550" viewBox="0 0 550 550" fill="none" xmlns="http://www.w3.org/2000/svg">
<mask id="mask0_27_1598" style="mask-type:luminance" maskUnits="userSpaceOnUse" x="0" y="0" width="550" height="550">
<path d="M0 6.10352e-05H550V550H0V6.10352e-05Z" fill="white"/>
</mask>
<g mask="url(#mask0_27_1598)">
<path d="M94.9131 492.364C-4.54558 434.94 -4.54558 341.84 94.9131 284.417C194.372 226.995 355.627 226.995 455.087 284.417C554.546 341.84 554.546 434.94 455.087 492.364C355.627 549.787 194.372 549.787 94.9131 492.364Z" fill="#F5F5F5"/>
</g>
<mask id="mask1_27_1598" style="mask-type:luminance" maskUnits="userSpaceOnUse" x="0" y="0" width="550" height="550">
<path d="M0 6.10352e-05H550V550H0V6.10352e-05Z" fill="white"/>
</mask>
<g mask="url(#mask1_27_1598)">
<path d="M229.76 418.116C260.275 435.734 260.275 464.298 229.76 481.917C199.244 499.536 149.769 499.536 119.254 481.917C88.7381 464.299 88.7381 435.734 119.254 418.116C149.769 400.498 199.245 400.497 229.76 418.116Z" fill="#E1E1E1"/>
<path d="M379.534 308.194C428.133 306.598 444.805 337.511 416.77 377.242C388.736 416.972 326.612 450.475 278.013 452.071C229.414 453.668 212.744 422.755 240.777 383.024C268.813 343.293 330.935 309.791 379.534 308.194Z" fill="#E1E1E1"/>
</g>
<mask id="mask2_27_1598" style="mask-type:luminance" maskUnits="userSpaceOnUse" x="0" y="0" width="550" height="550">
<path d="M0 6.10352e-05H550V550H0V6.10352e-05Z" fill="white"/>
</mask>
<g mask="url(#mask2_27_1598)">
<path d="M409.037 364.884C419.874 351.967 436.847 343.549 455.933 338.584C474.777 333.681 478.155 322.087 465.664 318.324C451.503 314.059 433.836 321.898 422.444 332.797C402.59 351.794 400.101 366.333 400.101 366.333L409.037 364.884Z" fill="url(#paint0_linear_27_1598)"/>
<mask id="mask3_27_1598" style="mask-type:luminance" maskUnits="userSpaceOnUse" x="400" y="317" width="74" height="50">
<path d="M400.101 317.143H473.063V366.333H400.101V317.143Z" fill="white"/>
</mask>
<g mask="url(#mask3_27_1598)">
<g opacity="0.149994">
<path d="M409.037 364.884C419.874 351.967 436.847 343.55 455.933 338.584C474.777 333.682 478.155 322.088 465.664 318.325C451.503 314.06 433.836 321.899 422.444 332.797C402.59 351.794 400.102 366.333 400.102 366.333L409.037 364.884Z" fill="black"/>
</g>
</g>
<path d="M403.456 364.13C403.375 364.13 403.293 364.111 403.215 364.074C402.941 363.941 402.829 363.612 402.962 363.339C419.044 330.341 454.633 322.223 463.285 322.835C463.588 322.857 463.814 323.122 463.793 323.424C463.77 323.728 463.49 323.955 463.203 323.933C454.756 323.285 419.786 331.332 403.95 363.821C403.855 364.015 403.66 364.13 403.456 364.13Z" fill="white"/>
<path d="M400.1 368.318C400.1 370.651 402.628 372.064 404.643 370.891C414.718 365.023 429.417 361.784 453.203 368.551C465.848 372.148 472.074 369.742 474.741 364.591C477.704 358.871 471.428 353.345 464.285 350.734C439.944 341.841 417.973 347.913 400.099 365.659L400.1 368.318Z" fill="url(#paint1_linear_27_1598)"/>
<path d="M401.484 368.789C401.332 368.789 401.183 368.727 401.074 368.605C400.871 368.378 400.891 368.032 401.118 367.828C422.133 349.044 454.696 352.7 467.02 360.028C467.28 360.182 467.367 360.52 467.211 360.782C467.055 361.042 466.718 361.128 466.457 360.973C454.384 353.794 422.466 350.221 401.85 368.649C401.746 368.742 401.615 368.789 401.484 368.789Z" fill="white"/>
<path d="M164.909 412.12C155.672 398.014 139.81 387.653 121.442 380.471C103.309 373.38 101.322 361.468 114.171 359.205C128.734 356.64 145.354 366.508 155.38 378.675C172.856 399.882 173.611 414.613 173.611 414.613L164.909 412.12Z" fill="url(#paint2_linear_27_1598)"/>
<mask id="mask4_27_1598" style="mask-type:luminance" maskUnits="userSpaceOnUse" x="105" y="358" width="69" height="57">
<path d="M105.928 358.797H173.611V414.613H105.928V358.797Z" fill="white"/>
</mask>
<g mask="url(#mask4_27_1598)">
<g opacity="0.149994">
<path d="M164.909 412.12C155.672 398.014 139.81 387.653 121.442 380.471C103.309 373.38 101.322 361.468 114.171 359.205C128.734 356.64 145.354 366.508 155.38 378.675C172.856 399.882 173.611 414.613 173.611 414.613L164.909 412.12Z" fill="black"/>
</g>
</g>
<path d="M170.539 412.029C170.62 412.039 170.703 412.03 170.785 412.003C171.072 411.903 171.223 411.589 171.123 411.302C159.046 376.638 124.663 364.378 116 363.965C115.697 363.95 115.441 364.187 115.425 364.489C115.412 364.793 115.664 365.052 115.951 365.064C124.417 365.417 158.193 377.534 170.084 411.664C170.156 411.869 170.337 412.006 170.539 412.029Z" fill="white"/>
<path d="M173.692 413.943C173.287 417.344 169.439 419.11 166.594 417.202C157.27 410.955 143.375 406.903 120.618 410.551C107.636 412.631 101.739 409.507 99.6973 404.077C97.4302 398.048 104.315 393.299 111.716 391.551C136.937 385.59 158.037 394.212 173.692 413.943Z" fill="url(#paint3_linear_27_1598)"/>
<path d="M171.948 416.888C172.099 416.906 172.255 416.862 172.377 416.754C172.605 416.553 172.626 416.206 172.425 415.978C153.772 394.844 121.005 394.634 107.903 400.457C107.626 400.579 107.5 400.905 107.624 401.183C107.749 401.461 108.073 401.584 108.35 401.462C121.186 395.758 153.302 395.974 171.6 416.706C171.693 416.811 171.817 416.873 171.948 416.888Z" fill="white"/>
</g>
<mask id="mask5_27_1598" style="mask-type:luminance" maskUnits="userSpaceOnUse" x="0" y="0" width="550" height="550">
<path d="M0 6.10352e-05H550V550H0V6.10352e-05Z" fill="white"/>
</mask>
<g mask="url(#mask5_27_1598)">
<path d="M418.904 160.788L418.909 160.78L418.735 160.691C418.729 160.688 418.723 160.684 418.716 160.681L376.785 136.543C376.771 136.536 376.759 136.529 376.745 136.522L376.501 136.397L376.496 136.407C356.908 126.526 330.77 129.489 302.659 147.667C246.181 184.187 203.145 268.247 206.535 335.417C208.224 368.899 221.133 391.857 240.646 401.949L240.642 401.957L240.816 402.045C240.822 402.048 240.83 402.053 240.837 402.056L282.776 426.2C282.783 426.203 282.789 426.207 282.795 426.209L283.001 426.314L283.005 426.306C302.599 436.218 328.757 433.263 356.893 415.069C413.369 378.549 456.407 294.49 453.018 227.319C451.328 193.838 438.419 170.879 418.904 160.788Z" fill="#2B454E"/>
<path d="M281.35 425.437L240.849 402.054L240.818 402.055L240.63 401.942C221.126 391.824 208.223 368.865 206.537 335.43C205.025 305.473 212.765 272.175 226.771 241.251L227.054 240.574L268.717 265.387C254.68 296.312 246.97 329.608 248.482 359.566C250.136 392.329 262.534 415.007 281.35 425.437Z" fill="#1A2E35"/>
<path d="M356.893 415.069C413.369 378.549 456.406 294.491 453.016 227.319C449.627 160.148 401.096 135.301 344.619 171.822C288.141 208.342 245.105 292.401 248.495 359.572C251.885 426.744 300.416 451.59 356.893 415.069Z" fill="#375A64"/>
<path d="M404.722 155.578L333.939 301.372L318.704 284.86C314.002 279.754 307.303 276.826 300.325 276.826C294.009 276.826 287.97 279.18 283.316 283.459C273.186 292.819 272.554 308.69 281.91 318.839L322.044 362.317C326.487 367.129 332.54 369.974 339.086 370.328C339.548 370.353 340.01 370.365 340.474 370.365C341.671 370.365 342.884 370.278 344.102 370.106C352.312 368.886 359.366 363.71 362.966 356.27L444.146 189.06C435.858 170.519 421.989 158.991 404.722 155.578Z" fill="#2B454E"/>
<path d="M462.206 107.549C461.765 107.295 461.311 107.054 460.846 106.829C450.038 101.605 437 106.111 431.784 116.885L341.71 302.411L336.593 296.866C335.069 295.212 333.343 293.852 331.487 292.788C328.799 291.249 317.383 284.636 315.535 283.57C307.532 278.95 297.085 279.82 289.897 286.43C281.101 294.556 280.554 308.338 288.676 317.148L328.81 360.625C330.337 362.28 332.085 363.661 333.992 364.747C336.612 366.237 347.989 372.833 349.85 373.913C352.785 375.617 356.102 376.615 359.581 376.803C361.015 376.881 362.454 376.822 363.932 376.612C371.06 375.552 377.191 371.058 380.313 364.6L486.874 145.114C491.878 134.786 487.973 122.414 478.196 116.781C477.75 116.524 465.052 109.186 462.206 107.549Z" fill="url(#paint4_linear_27_1598)"/>
<mask id="mask6_27_1598" style="mask-type:luminance" maskUnits="userSpaceOnUse" x="282" y="104" width="208" height="273">
<path d="M282.926 104.653H489.053V376.835H282.926V104.653Z" fill="white"/>
</mask>
<g mask="url(#mask6_27_1598)">
<g opacity="0.149994">
<path d="M462.206 107.549C461.765 107.295 461.311 107.054 460.846 106.829C450.038 101.605 437 106.111 431.784 116.885L341.71 302.411L336.593 296.866C335.069 295.212 333.343 293.852 331.487 292.788C328.799 291.249 317.383 284.636 315.535 283.57C307.532 278.95 297.085 279.82 289.897 286.43C281.101 294.556 280.554 308.338 288.676 317.148L328.81 360.625C330.337 362.28 332.085 363.661 333.992 364.747C336.612 366.237 347.989 372.833 349.85 373.913C352.785 375.617 356.102 376.615 359.581 376.803C361.015 376.881 362.454 376.822 363.932 376.612C371.06 375.552 377.191 371.058 380.313 364.6L486.874 145.114C491.878 134.786 487.973 122.414 478.196 116.781C477.75 116.524 465.052 109.186 462.206 107.549Z" fill="black"/>
</g>
</g>
<mask id="mask7_27_1598" style="mask-type:luminance" maskUnits="userSpaceOnUse" x="284" y="310" width="66" height="64">
<path d="M284.524 310.544H349.847V373.912H284.524V310.544Z" fill="white"/>
</mask>
<g mask="url(#mask7_27_1598)">
<g opacity="0.149994">
<path d="M349.847 373.912C347.993 372.836 336.613 366.239 333.99 364.743C332.086 363.657 330.333 362.275 328.807 360.626L288.672 317.151C286.849 315.164 285.475 312.91 284.523 310.544L300.483 319.753C301.425 322.129 302.818 324.383 304.652 326.371L344.786 369.845C346.283 371.463 347.984 372.826 349.847 373.912Z" fill="black"/>
</g>
</g>
<mask id="mask8_27_1598" style="mask-type:luminance" maskUnits="userSpaceOnUse" x="341" y="110" width="112" height="207">
<path d="M341.714 110.198H452.796V316.936H341.714V110.198Z" fill="white"/>
</mask>
<g mask="url(#mask8_27_1598)">
<g opacity="0.149994">
<path d="M452.797 119.417C450.748 121.241 449.026 123.494 447.757 126.106L355.113 316.936L341.714 302.411L431.786 116.887C433.047 114.264 434.788 112.02 436.836 110.198L452.797 119.417Z" fill="black"/>
</g>
</g>
<path d="M476.821 116.052C466.013 110.827 452.974 115.334 447.758 126.109L355.111 316.935L336.593 296.866C328.501 288.077 314.719 287.518 305.872 295.654C297.078 303.779 296.53 317.56 304.651 326.371L344.786 369.849C348.641 374.024 353.896 376.496 359.58 376.803C361.015 376.881 362.454 376.822 363.932 376.612C371.06 375.552 377.191 371.058 380.314 364.6L486.874 145.114C492.105 134.315 487.598 121.278 476.821 116.052Z" fill="url(#paint5_linear_27_1598)"/>
</g>
<mask id="mask9_27_1598" style="mask-type:luminance" maskUnits="userSpaceOnUse" x="0" y="0" width="550" height="550">
<path d="M0 6.10352e-05H550V550H0V6.10352e-05Z" fill="white"/>
</mask>
<g mask="url(#mask9_27_1598)">
<path d="M172.951 137.485C164.561 137.485 158.814 139.669 152.855 148.158C147.389 155.944 132.351 181.903 132.351 181.903C132.351 181.903 121.385 159.336 120.245 154.835C119.106 150.334 119.207 148.335 120.291 146.381C121.625 143.973 122.815 141.863 123.068 138.641C123.494 133.237 124.82 128.606 123.607 128.452C120.247 128.259 120.12 132.568 118.357 135.115C117.729 136.024 115.671 136.157 114.976 134.745C114.235 133.238 114.634 130.766 114.275 128.984C114.435 127.444 114.575 126.945 114.75 126.043C115.696 126.263 117.072 126.289 118.6 126.15C120.05 128.429 121.045 129.388 123.068 128.462C123.335 128.035 122.199 125.113 120.885 123.007C120.677 122.674 120.36 122.42 119.981 122.316C117.949 121.755 115.643 121.617 112.521 122.111C112.153 122.17 111.773 122.333 111.565 122.643C110.4 124.371 109.702 126.119 109.418 127.007C109.269 127.476 108.835 127.465 108.726 127.058C107.654 121.746 107.638 114.203 107.638 110.666C107.638 107.887 103.572 107.45 103.43 111.431C103.285 115.509 103.179 123.057 103.705 127.462C103.767 127.941 103.225 128.171 103.028 127.645C102.321 125.758 100.594 120.075 99.869 110.264C99.6754 107.629 95.4074 107.193 95.4393 110.902C95.5262 121.066 97.8824 130.437 97.8824 130.437C98.0067 130.902 97.5854 131.309 97.2631 130.783C95.843 128.46 93.6111 122.696 92.4825 118.73C91.5761 115.548 87.3224 116.355 88.0671 120.323C89.4003 127.442 91.5134 136.448 94.6605 142.878C98.0276 149.755 100.94 153.195 102.607 158.597C104.275 164 111.201 194.594 118.601 206.516C124.399 215.859 131.034 215 138.168 210.072C145.302 205.144 170.815 169.598 170.815 169.598L172.951 137.485Z" fill="#B06767"/>
<path d="M132.351 181.903C132.351 181.903 135.929 187.97 136.474 192.816C136.474 192.816 138.202 185.877 133.951 179.154L132.351 181.903Z" fill="#994B4B"/>
<path d="M174.733 137.513C170.465 137.074 165.159 136.927 159.232 140.652C153.304 144.378 151.247 149.579 148.379 154.12C145.51 158.66 135.582 174.758 135.582 174.758C135.582 174.758 139.222 190.038 153.705 193.186L175.385 163.768L174.733 137.513Z" fill="#375A64"/>
<path d="M194.176 406.15C195.233 406.014 196.733 409.761 196.754 410.984C196.775 412.207 195.55 414.835 193.926 417.297C192.304 419.759 190.055 422.807 188.597 426.786C187.354 430.175 186.205 432.397 182.746 436.833C178.89 441.777 169.855 450.041 156.121 446.442C152.77 445.564 151.093 444.507 149.88 443.288C148.856 442.259 148.37 440.591 148.92 439.087L194.176 406.15Z" fill="#1A2E35"/>
<path d="M167.206 401.865C167.195 401.904 167.185 401.943 167.176 401.982C166.939 402.991 167.139 404.044 167.268 405.074C167.716 408.685 167.236 412.406 165.883 415.784C164.974 418.055 163.673 420.167 162.061 422.006C160.421 423.878 157.737 425.858 155.644 427.194C148.686 431.634 147.939 434.602 148.92 439.087C151.246 444.312 167.017 447.492 176.082 439.709C179.624 436.668 182.311 433.996 184.71 427.977C186.397 423.744 187.657 421.346 189.283 418.297C191.04 415.001 194.364 411.278 194.461 407.877C194.513 406.009 192.664 402.533 190.867 399.671C189.219 397.044 187.52 394.546 186.036 394.838L186.445 396.323C185.21 397.608 183.414 398.088 182.331 399.596C180.994 401.455 181.043 403.954 180.211 406.088C180.131 406.294 180.018 406.518 179.808 406.583C179.583 406.652 179.339 406.495 179.229 406.288C179.118 406.08 179.108 405.836 179.101 405.602C179.069 404.535 179.036 403.468 179.005 402.401C178.985 401.789 178.946 401.125 178.541 400.666C177.683 399.696 175.567 399.81 174.392 399.763C172.782 399.697 171.248 399.948 169.653 400.048C169.062 400.085 168.616 400.05 168.111 400.455C167.671 400.808 167.358 401.323 167.206 401.865Z" fill="#2B454E"/>
<path d="M143.901 337.914C147.567 349.956 164.689 391.653 165.719 394.162C166.748 396.67 169.126 402.437 169.126 402.437C169.126 402.437 171.923 403.589 176.081 402.728C176.441 406.722 177.043 412.983 177.282 416.143C177.36 419.806 177.679 424.331 176.892 427.951C176.219 431.035 175.443 434.267 174.861 437.357C174.604 438.725 174.347 440.094 174.142 441.471C173.923 442.926 173.781 444.499 174.486 445.793C174.815 446.398 175.311 446.897 175.843 447.336C178.217 449.289 181.409 450.118 184.474 449.868C186.093 449.736 187.725 449.301 189.047 448.354C191.706 446.446 192.645 443.135 193.999 440.32C195.469 437.267 194.992 436.932 195.116 433.662C195.204 431.375 195.839 425.565 196.754 419.495C197.669 413.425 201.609 392.084 203.498 370.818C204.806 356.096 203.498 342.44 203.498 342.44C218.524 301.617 225.216 277.348 227.18 263.788C229.176 250.015 228.22 245.114 227.967 237.187L154.895 238.946C149.019 276.713 138.984 321.76 143.901 337.914Z" fill="#B06767"/>
<path d="M142.76 307.766C144.265 293.884 154.648 240.522 154.648 240.522H228.266C228.266 240.522 228.731 250.766 228.598 255.47C228.465 260.174 226.956 268.778 224.319 279.649C221.683 290.52 211.948 321.324 210.067 325.871C208.186 330.417 204.542 343.549 204.542 343.549C206.347 368.239 201.653 390.39 198.132 419.833C198.132 419.833 197.114 423.811 186.68 423.022C176.541 422.257 174.497 418.52 174.497 418.52L173.817 393.114C173.817 393.114 168.273 394.815 165.019 394.037C165.019 394.037 143.228 340.244 142.175 337.003C141.121 333.762 141.255 321.648 142.76 307.766Z" fill="url(#paint6_linear_27_1598)"/>
<mask id="mask10_27_1598" style="mask-type:luminance" maskUnits="userSpaceOnUse" x="141" y="240" width="88" height="184">
<path d="M141.489 240.522H228.622V423.126H141.489V240.522Z" fill="white"/>
</mask>
<g mask="url(#mask10_27_1598)">
<g opacity="0.449997">
<path d="M142.76 307.766C144.265 293.884 154.648 240.522 154.648 240.522H228.266C228.266 240.522 228.731 250.766 228.598 255.47C228.465 260.174 226.956 268.778 224.319 279.649C221.683 290.52 211.948 321.324 210.067 325.871C208.186 330.417 204.542 343.549 204.542 343.549C206.347 368.239 201.653 390.39 198.132 419.833C198.132 419.833 197.114 423.811 186.68 423.022C176.541 422.257 174.497 418.52 174.497 418.52L173.817 393.114C173.817 393.114 168.273 394.815 165.019 394.037C165.019 394.037 143.228 340.244 142.175 337.003C141.121 333.762 141.255 321.648 142.76 307.766Z" fill="black"/>
</g>
</g>
<mask id="mask11_27_1598" style="mask-type:luminance" maskUnits="userSpaceOnUse" x="161" y="258" width="19" height="136">
<path d="M161.241 258.431H179.596V393.117H161.241V258.431Z" fill="white"/>
</mask>
<g mask="url(#mask11_27_1598)">
<g opacity="0.199997">
<path d="M173.983 275.308C163.559 265.909 161.241 258.431 161.241 258.431C169.01 267.602 179.597 273.14 179.597 273.14C179.597 273.14 169.698 325.413 170.419 336.161C171.138 346.909 173.818 393.114 173.818 393.114C173.837 393.558 166.799 344.247 166.599 340.306C166.074 329.928 173.983 275.308 173.983 275.308Z" fill="black"/>
</g>
</g>
<path d="M196.928 446.01C197.955 446.304 197.826 449.365 197.364 450.5C196.9 451.634 195.071 453.805 192.606 455.432C190.142 457.059 187.849 459.337 185.625 462.951C184.047 465.52 180.064 470.408 174.68 473.636C169.296 476.863 161.339 477.99 155.428 476.312C148.522 474.351 147.879 472.659 147.944 470.053L196.928 446.01Z" fill="#1A2E35"/>
<path d="M175.56 430.015C173.749 438.857 170.591 445.276 163.269 450.717C157.448 455.043 153.216 457.243 148.572 461.11C146.593 462.758 146.427 466.269 147.944 470.052C151.083 472.574 155.549 474.018 161.548 474.009C168.252 473.998 170.832 472.815 174.68 470.182C176.896 468.665 178.428 467.28 179.935 465.768C183.156 462.535 185.401 458.546 187.726 455.983C190.051 453.421 195.08 450.805 196.51 447.712C197.294 446.013 196.962 442.085 196.436 438.741C195.953 435.674 196.893 430.285 195.412 429.969C195.445 429.976 195.212 432.165 195.212 432.165C195.09 432.663 194.78 432.915 193.742 433.274C193.049 433.513 191.634 433.478 190.911 433.358C190.065 433.217 189.582 433.23 189.017 433.894C188.025 435.063 187.761 436.709 186.489 437.676C186.399 437.744 186.304 437.808 186.194 437.832C186.085 437.856 185.958 437.831 185.887 437.745C185.808 437.648 185.818 437.509 185.831 437.384L186.198 434.095C186.236 433.765 186.273 433.43 186.226 433.1C186.14 432.488 185.676 431.966 185.163 431.653C184.267 431.108 183.216 430.708 182.207 430.427C181.138 430.128 180.035 429.968 178.931 429.867C177.817 429.766 176.658 429.745 175.56 430.015Z" fill="#375A64"/>
<path d="M221.612 140.652C221.612 140.652 224.645 144.818 227.073 153.387C227.073 153.387 231.696 172.979 231.696 196.198C231.696 215.628 229.074 247.123 229.074 247.123C206.517 258.431 170.128 251.744 154.114 240.718C154.762 237.217 155.312 218.827 156.572 206.695C157.424 185.88 158.126 174.972 158.273 165.715C158.567 147.21 167.777 137.655 174.733 137.513L192.398 137.789L221.612 140.652Z" fill="url(#paint7_linear_27_1598)"/>
<path d="M227.18 241.412C223.827 244.173 217.24 249.478 216.036 252.15C214.656 255.21 213.798 259.816 212.902 261.595C212.005 263.373 213.382 264.205 215.312 263.583C217.245 262.963 218.409 261.311 219.901 257.31C221.393 253.308 225.553 250.174 225.553 250.174L227.18 241.412Z" fill="#994B4B"/>
<path d="M214.931 277.423C215.732 278.97 217.608 278.977 219.344 279.118C221.816 279.318 223.212 279.144 225.58 278.408C227.948 277.673 230.157 276.27 231.576 274.236C233.271 271.803 233.702 268.74 234.669 265.939C236.701 260.048 242.73 255.809 243.712 249.571C244.118 246.99 244.121 243.96 244.853 242.359C245.283 241.417 255.193 224.353 258.726 216.963C262.123 209.86 264.663 206.518 261.585 197.975C258.506 189.434 248.015 159.398 240.597 148.96C236.388 143.039 229.71 141.354 221.612 140.652C215.454 156.7 222.623 173.271 222.623 173.271L238.916 204.706C238.916 204.706 232.581 226.353 228.622 238.391C227.522 241.735 225.299 243.801 222.801 247.508C221.717 249.117 219.221 251.936 218.334 253.662C217.192 255.886 217.222 257.309 216.686 260.423C215.833 265.386 214.549 276.686 214.931 277.423Z" fill="#B06767"/>
<path d="M220.745 140.566C225 140.737 231.116 141.456 234.774 143.303C238.433 145.15 240.962 147.433 245.173 155.855C249.383 164.279 255.514 180.648 255.514 180.648C255.514 180.648 253.479 193 233.947 196.206L220.745 171.865C220.745 171.865 214.861 156.699 220.745 140.566Z" fill="#375A64"/>
<path d="M169.999 101.251C170.636 102.179 170.989 103.447 171.492 104.461C172.199 105.889 172.909 107.337 173.962 108.549C176.493 111.465 180.053 113.601 183.29 115.665C185.255 116.92 187.497 118.098 189.9 117.754C192.337 117.405 194.973 117.933 197.454 118.155C200.34 118.415 203.225 118.672 206.109 118.931L205.621 128.032C205.621 128.032 206.693 125.62 208.161 122.741C209.42 120.268 214.677 107.709 214.697 107.661C217.301 101.439 220.397 93.1479 217.279 86.6106C216.544 85.0684 215.453 83.6307 213.894 82.7309C214.207 81.5308 214.306 80.6948 214.18 79.6322C213.761 76.1133 211.971 74.1025 209.584 72.3458C207.196 70.5891 204.308 69.6475 201.42 68.9842C197.55 68.0932 193.578 67.6543 189.607 67.6697C185.656 67.684 181.894 68.3462 178.016 69.0007C175.881 69.3604 173.726 69.6497 171.558 69.6739C170.647 69.6849 169.638 69.7443 168.762 69.5408C167.626 69.2768 166.487 68.7191 165.388 68.3231C165.194 68.2527 164.971 68.1834 164.785 68.2736C164.596 68.3671 164.515 68.5904 164.46 68.7928C163.765 71.3382 164.638 74.6448 166.257 76.7282C165.597 76.6435 165.085 76.4202 164.826 76.3124C164.292 76.0891 163.83 75.7811 163.341 75.4764C162.463 74.9286 161.925 74.2917 161.253 73.4854C161.16 73.3732 161.054 73.2533 160.91 73.228C160.692 73.1895 160.506 73.3798 160.376 73.558C159.122 75.2707 158.809 77.5565 159.232 79.6377C159.655 81.7178 160.755 83.6109 162.094 85.2576C160.656 87.3938 160.634 90.2989 161.703 92.6397C162.178 93.6792 162.852 94.6197 163.648 95.4359C164.634 96.4479 165.805 97.2751 166.844 98.2167C167.905 99.1792 169.181 100.058 169.999 101.251Z" fill="#2B454E"/>
<path d="M196.362 86.0944C196.387 88.5199 196.729 90.2139 196.985 90.9608C197.496 92.4524 198.351 93.4369 199.441 94.5776C200.559 95.7469 201.945 96.6786 202.848 98.0206C204.079 99.8521 204.503 102.213 204.763 104.356C204.92 105.659 205.32 107.08 206.436 107.77C208.789 109.225 210.199 106.403 211.454 105.019C213.074 103.522 217.873 101.697 220.094 106.799C222.395 112.083 218.154 119.08 214.291 120.156C207.633 122.011 206.188 117.481 206.188 117.481L204.912 141.241C201.152 148.36 192.331 150.62 186.534 149.487C181.531 148.51 178.781 145.004 183.487 139.915L183.741 132.679C183.741 132.679 177.738 133.392 174.84 132.847C170.016 131.94 167.625 127.842 166.325 122.547C164.237 114.043 163.283 105.105 165.864 85.9569C167.05 85.3046 171.808 89.0127 179.012 89.5088C186.168 90.0038 192.771 88.0799 196.362 86.0944Z" fill="#B06767"/>
<path d="M183.74 132.679C183.74 132.679 194.631 130.851 198.48 128.964C201.056 127.7 203.218 125.435 203.878 123.959C203.878 123.959 203.065 127.146 200.709 129.965C197.827 133.412 183.647 135.558 183.647 135.558L183.74 132.679Z" fill="#994B4B"/>
<path d="M189.365 94.5554L194.435 96.1064C194.83 94.661 194.016 93.1419 192.615 92.7129C191.215 92.285 189.76 93.11 189.365 94.5554Z" fill="#1A2E35"/>
<path d="M187.603 118.623L180.139 121.15C180.8 123.287 183.008 124.454 185.068 123.757C187.13 123.059 188.265 120.761 187.603 118.623Z" fill="#994B4B"/>
<path d="M187 120.45C184.938 120.45 183.22 121.873 182.743 123.788C183.478 124.014 184.283 124.023 185.068 123.757C186.517 123.267 187.491 121.982 187.723 120.523C187.486 120.483 187.248 120.45 187 120.45Z" fill="#FF9090"/>
<path d="M166.732 95.4072L171.881 94.7285C171.728 93.3282 170.451 92.3448 169.028 92.5318C167.607 92.7188 166.579 94.0069 166.732 95.4072Z" fill="#1A2E35"/>
<path d="M198.442 97.6051L215.454 103.435C215.454 103.435 212.788 103.22 210.552 105.923L198.503 101.347L198.442 97.6051Z" fill="#1A2E35"/>
<path d="M169.264 104.241C169.226 105.407 170.106 106.38 171.229 106.413C172.351 106.446 173.292 105.528 173.33 104.361C173.367 103.195 172.488 102.223 171.366 102.189C170.243 102.156 169.303 103.074 169.264 104.241Z" fill="#1A2E35"/>
<path d="M188.705 104.251C188.667 105.417 189.547 106.39 190.669 106.424C191.792 106.456 192.733 105.538 192.77 104.372C192.809 103.205 191.929 102.233 190.807 102.2C189.684 102.166 188.743 103.084 188.705 104.251Z" fill="#1A2E35"/>
<path d="M162.675 99.4203C162.875 99.2289 163.169 99.0331 163.56 98.8593C163.585 98.8472 163.605 98.8384 163.631 98.8285C163.751 98.7735 163.88 98.7229 164.022 98.6745C164.097 98.6492 164.18 98.6206 164.261 98.5975C164.325 98.5788 164.394 98.5568 164.461 98.5425C164.506 98.5271 164.553 98.5183 164.594 98.5073C164.612 98.5007 164.631 98.4974 164.646 98.4952C164.71 98.4787 164.776 98.4633 164.843 98.449C165.1 98.3918 165.379 98.3456 165.677 98.3115C165.822 98.2928 165.974 98.2763 166.129 98.2675C166.217 98.2587 166.308 98.2543 166.403 98.2488C166.472 98.2433 166.542 98.2411 166.613 98.2389C166.799 98.2345 166.992 98.2301 167.19 98.2334C167.261 98.2334 167.33 98.2345 167.404 98.2367C167.468 98.2378 167.535 98.24 167.602 98.2433C168.12 98.2631 168.678 98.3137 169.273 98.4006C171.859 98.7746 174.558 99.9725 175.262 101.034C175.966 102.097 175.808 104.304 175.47 106.197C175.402 106.571 175.302 107.006 175.143 107.465C175.136 107.495 175.121 107.53 175.11 107.564C175.096 107.605 175.081 107.648 175.064 107.692C175.052 107.721 175.043 107.748 175.031 107.778C175.011 107.83 174.992 107.88 174.968 107.93C174.924 108.037 174.878 108.14 174.829 108.243C174.788 108.331 174.742 108.423 174.695 108.511C174.677 108.544 174.659 108.576 174.642 108.605C174.61 108.663 174.574 108.724 174.536 108.786C174.506 108.835 174.475 108.887 174.438 108.94C174.435 108.947 174.429 108.956 174.424 108.965C173.524 110.343 171.918 111.531 169.041 111.425C167.956 111.389 167.059 111.146 166.327 110.773C163.758 109.468 163.102 106.58 162.797 105.242C162.411 103.527 161.908 100.158 162.675 99.4203ZM183.999 101.195C184.197 100.902 184.573 100.6 185.071 100.319C185.132 100.279 185.196 100.245 185.264 100.211C185.3 100.19 185.335 100.174 185.37 100.155C185.537 100.069 185.714 99.9835 185.901 99.9043C186.056 99.8361 186.221 99.769 186.392 99.7041C186.886 99.5127 187.433 99.3422 187.999 99.1981C188.209 99.1453 188.423 99.0936 188.639 99.0496C189.184 98.9308 189.738 98.845 190.294 98.7878C190.427 98.7735 190.558 98.7614 190.68 98.757C194.305 98.4622 196.568 99.3169 197.391 100.062C198.243 100.833 197.858 104.181 197.513 105.883C197.504 105.925 197.495 105.966 197.487 106.008C197.478 106.05 197.468 106.095 197.46 106.14C197.418 106.346 197.369 106.579 197.305 106.827C197.269 106.964 197.229 107.107 197.187 107.253C197.184 107.26 197.184 107.266 197.181 107.271C197.115 107.5 197.034 107.737 196.939 107.981V107.984C196.908 108.063 196.874 108.147 196.84 108.227C196.821 108.273 196.799 108.322 196.775 108.372C196.753 108.426 196.728 108.479 196.699 108.534C196.668 108.601 196.634 108.67 196.599 108.736C196.563 108.813 196.522 108.888 196.478 108.962C196.434 109.042 196.387 109.12 196.333 109.203C196.285 109.281 196.231 109.362 196.175 109.442C195.276 110.744 193.753 111.84 191.108 111.833C188.491 111.827 186.823 110.926 185.754 109.792L185.752 109.791C184.692 108.659 184.222 107.299 183.996 106.356C183.551 104.447 183.292 102.229 183.999 101.195ZM159.23 98.8395C159.306 99.8735 159.964 100.835 160.303 101.236C160.481 101.449 160.646 101.729 160.734 102.091C161.132 103.727 161.469 106.827 162.246 108.568C163.025 110.308 164.649 113.066 169.217 113.17C170.105 113.193 170.893 113.121 171.589 112.971C171.65 112.96 171.71 112.945 171.769 112.933C172.507 112.76 173.144 112.498 173.697 112.173C173.735 112.15 173.775 112.126 173.811 112.101C173.867 112.069 173.922 112.034 173.976 111.998C174.024 111.966 174.072 111.933 174.183 111.854C174.249 111.807 174.312 111.76 174.374 111.71C174.447 111.655 174.515 111.598 174.585 111.539C174.653 111.483 174.719 111.425 174.785 111.361C174.916 111.241 175.038 111.116 175.157 110.984C175.832 110.25 176.319 109.39 176.705 108.521C177.711 106.257 177.451 103.089 179.106 102.723C179.167 102.709 179.234 102.698 179.304 102.694C179.372 102.686 179.442 102.685 179.518 102.685C181.766 102.718 181.517 106.169 182.775 108.632C184.031 111.099 186.113 113.505 190.991 113.573C191.209 113.577 191.42 113.573 191.621 113.567C191.794 113.56 191.962 113.551 192.125 113.533C192.544 113.504 192.937 113.444 193.299 113.367C193.426 113.339 193.549 113.312 193.668 113.281C193.788 113.251 193.908 113.214 194.022 113.181C194.095 113.162 194.17 113.136 194.245 113.11C194.742 112.938 195.177 112.729 195.565 112.489C195.72 112.393 195.864 112.295 196.008 112.19C196.286 111.985 196.533 111.768 196.773 111.52C197.504 110.76 197.945 109.919 198.25 109.232C199.008 107.522 199.206 104.422 199.583 102.809C199.683 102.38 199.816 102.082 199.956 101.876C200.272 101.409 201.025 100.597 201.055 99.5611C201.084 98.526 200.354 97.624 199.695 97.5283C199.314 97.4722 198.912 97.4194 198.5 97.3688C194.65 96.9035 189.628 96.6978 186.626 97.5118C182.861 98.5414 181.555 99.747 179.455 99.7184C177.492 99.6722 176.218 98.4204 172.651 97.2555C169.804 96.3304 165.111 96.3579 161.529 96.6857C161.144 96.7198 160.773 96.7594 160.418 96.8012C159.805 96.8749 159.155 97.8044 159.23 98.8395Z" fill="#1A2E35"/>
<path d="M180.14 102.806L179.755 116.947L171.863 114.669L179.219 102.689C179.56 102.654 179.862 102.704 180.14 102.806Z" fill="#994B4B"/>
</g>
<mask id="mask12_27_1598" style="mask-type:luminance" maskUnits="userSpaceOnUse" x="0" y="0" width="550" height="550">
<path d="M0 6.10352e-05H550V550H0V6.10352e-05Z" fill="white"/>
</mask>
<g mask="url(#mask12_27_1598)">
<path d="M249.666 68.9073C249.666 49.1931 267.913 33.2101 290.421 33.2101C312.93 33.2101 331.177 49.1931 331.177 68.9073C331.177 88.6226 312.93 104.604 290.421 104.604C267.913 104.604 249.666 88.6226 249.666 68.9073Z" fill="url(#paint8_linear_27_1598)"/>
<path d="M257.89 89.5468C257.666 94.3362 253.618 102.892 246.296 106.005C245.836 106.201 245.89 106.865 246.379 106.966C250.379 107.799 261.056 108.806 268.93 98.4249L257.89 89.5468Z" fill="url(#paint9_linear_27_1598)"/>
<path d="M281.63 73.4993C281.657 72.9834 281.687 72.4125 281.716 71.7811C281.744 71.153 281.759 70.5095 281.759 69.8517C281.759 69.1928 281.744 68.557 281.716 67.9421C281.687 67.3261 281.657 66.7761 281.63 66.2877C281.572 65.5738 281.423 64.9149 281.18 64.3143C280.936 63.7137 280.593 63.1923 280.149 62.7479C279.705 62.3046 279.155 61.9537 278.496 61.6974C277.838 61.4389 277.066 61.3102 276.179 61.3102C275.293 61.3102 274.521 61.4389 273.863 61.6974C273.204 61.9537 272.653 62.3046 272.21 62.7479C271.766 63.1923 271.423 63.7137 271.18 64.3143C270.937 64.9149 270.786 65.5738 270.729 66.2877C270.672 66.7761 270.635 67.3261 270.622 67.9421C270.607 68.557 270.6 69.1928 270.6 69.8517C270.6 70.5095 270.607 71.153 270.622 71.7811C270.635 72.4125 270.672 72.9834 270.729 73.4993C270.843 74.9304 271.337 76.1173 272.21 77.0611C273.083 78.006 274.405 78.4768 276.179 78.4768C277.953 78.4768 279.269 78.006 280.128 77.0611C280.986 76.1173 281.486 74.9304 281.63 73.4993ZM262.79 66.0743C262.876 64.4716 263.226 62.9624 263.842 61.5467C264.456 60.1299 265.328 58.9001 266.459 57.8551C267.59 56.8112 268.962 55.9818 270.579 55.3669C272.195 54.7509 274.063 54.444 276.179 54.444C278.267 54.444 280.128 54.7509 281.759 55.3669C283.39 55.9818 284.769 56.8112 285.9 57.8551C287.03 58.9001 287.902 60.1299 288.518 61.5467C289.133 62.9624 289.484 64.4716 289.57 66.0743C289.627 67.3041 289.656 68.5922 289.656 69.9364C289.656 71.2817 289.627 72.5401 289.57 73.7127C289.484 75.3165 289.133 76.8246 288.518 78.2414C287.902 79.6582 287.03 80.8957 285.9 81.9539C284.769 83.0121 283.39 83.8415 281.759 84.4432C280.128 85.0438 278.267 85.3452 276.179 85.3452C274.063 85.3452 272.195 85.0438 270.579 84.4432C268.962 83.8415 267.59 83.0121 266.459 81.9539C265.328 80.8957 264.456 79.6582 263.842 78.2414C263.226 76.8246 262.876 75.3165 262.79 73.7127C262.732 72.5401 262.703 71.2817 262.703 69.9364C262.703 68.5922 262.732 67.3041 262.79 66.0743Z" fill="white"/>
<path d="M320.042 83.4989C320.128 83.6133 320.171 83.7706 320.171 83.9708C320.171 84.2282 320.077 84.4493 319.891 84.6352C319.704 84.8222 319.483 84.9146 319.227 84.9146H312.403C312.001 84.9146 311.673 84.8288 311.415 84.6572C311.157 84.4845 310.9 84.2425 310.643 83.9279L302.531 73.7133V83.7552C302.531 84.072 302.417 84.3437 302.188 84.5714C301.959 84.8013 301.686 84.9146 301.372 84.9146H295.75C295.435 84.9146 295.163 84.8013 294.935 84.5714C294.706 84.3437 294.591 84.072 294.591 83.7552V56.0308C294.591 55.7162 294.706 55.4445 294.935 55.2157C295.163 54.9869 295.435 54.8725 295.75 54.8725H301.372C301.686 54.8725 301.959 54.9869 302.188 55.2157C302.417 55.4445 302.531 55.7162 302.531 56.0308V65.0871L310.085 55.8163C310.228 55.6447 310.414 55.4445 310.643 55.2157C310.871 54.9869 311.257 54.8725 311.802 54.8725H318.497C318.754 54.8725 318.975 54.966 319.162 55.1508C319.348 55.3367 319.44 55.5589 319.44 55.8163C319.44 56.0176 319.397 56.1738 319.312 56.2893L308.711 69.2495L320.042 83.4989Z" fill="white"/>
</g>
<path d="M395.578 102.655L389.413 104.51L384.953 89.6328L391.108 87.7771L395.578 102.655Z" fill="#E1E1E1"/>
<mask id="mask13_27_1598" style="mask-type:luminance" maskUnits="userSpaceOnUse" x="0" y="0" width="550" height="550">
<path d="M0 6.10352e-05H550V550H0V6.10352e-05Z" fill="white"/>
</mask>
<g mask="url(#mask13_27_1598)">
<path d="M414.846 89.4403C415.086 90.2389 414.295 91.9582 413.098 92.3201C413.098 92.3201 413.673 92.9262 413.963 93.8942C414.318 95.0459 413.375 96.5958 411.523 97.1469C409.68 97.6991 397.409 101.394 397.409 101.394L393.256 87.5747L393.246 87.5736C393.246 87.5736 395.642 81.4609 395.759 80.5413C395.899 79.636 394.467 76.2304 394.275 75.5902C394.118 75.0688 396.363 74.1206 398.171 74.8488C398.587 75.0193 398.982 75.2723 399.323 75.6452C400.029 76.4196 400.559 77.1797 400.94 77.9629C401.549 79.1751 401.8 80.4346 401.8 81.8657L410.326 79.3005C411.038 79.0871 411.66 79.1487 412.152 79.3566C412.912 79.6712 413.4 80.3224 413.558 80.8504C413.951 82.0967 413.222 83.0537 412.833 83.4266C412.833 83.4266 414.65 83.277 415.165 84.993C415.454 85.9544 414.976 87.2249 413.758 87.8508C413.758 87.8508 414.489 88.2468 414.846 89.4403Z" fill="#E1E1E1"/>
<path d="M484.005 256.974L476.097 255.072L480.705 235.997L488.604 237.892L484.005 256.974Z" fill="#E1E1E1"/>
<path d="M513.447 254.829C513.2 255.852 511.243 257.225 509.706 256.857C509.706 256.857 509.946 257.886 509.647 259.127C509.299 260.608 507.285 261.7 504.913 261.121C502.55 260.55 486.807 256.765 486.807 256.765L491.078 239.041L491.068 239.034C491.068 239.034 497.576 233.889 498.289 232.96C499.018 232.061 499.625 227.434 499.823 226.612C499.985 225.943 503.038 226.339 504.546 228.285C504.893 228.736 505.163 229.263 505.296 229.888C505.575 231.182 505.668 232.348 505.585 233.447C505.478 235.158 504.948 236.691 504.037 238.253L514.975 240.885C515.888 241.105 516.527 241.569 516.93 242.11C517.56 242.937 517.678 243.959 517.513 244.635C517.147 246.246 515.745 246.827 515.082 246.984C515.082 246.984 517.161 247.979 516.63 250.178C516.332 251.412 515.001 252.494 513.273 252.401C513.273 252.401 513.818 253.298 513.447 254.829Z" fill="#E1E1E1"/>
<path d="M84.5055 245.56L93.1372 248.159L99.3852 227.325L90.7656 224.727L84.5055 245.56Z" fill="#E1E1E1"/>
<path d="M57.5228 227.055C57.1873 228.173 58.2939 230.58 59.9703 231.087C59.9703 231.087 59.1662 231.938 58.7603 233.293C58.2631 234.904 59.582 237.075 62.1758 237.848C64.7575 238.621 81.9406 243.794 81.9406 243.794L87.7563 224.442L87.7695 224.441C87.7695 224.441 84.4156 215.881 84.2517 214.593C84.057 213.327 86.0612 208.557 86.3307 207.659C86.5496 206.929 83.4058 205.602 80.8747 206.621C80.2917 206.861 79.7384 207.214 79.2621 207.736C78.2721 208.821 77.5307 209.885 76.9972 210.984C76.1425 212.68 75.7927 214.444 75.7927 216.447L63.8522 212.855C62.8556 212.557 61.9855 212.641 61.2958 212.936C60.231 213.374 59.549 214.287 59.3268 215.026C58.7779 216.772 59.7954 218.113 60.3421 218.633C60.3421 218.633 57.7967 218.424 57.0751 220.826C56.6725 222.173 57.3402 223.953 59.0463 224.829C59.0463 224.829 58.0244 225.383 57.5228 227.055Z" fill="#E1E1E1"/>
</g>
<defs>
<linearGradient id="paint0_linear_27_1598" x1="400.101" y1="342.041" x2="473.063" y2="342.041" gradientUnits="userSpaceOnUse">
<stop stop-color="#00C9FF"/>
<stop offset="1" stop-color="#92FE9D"/>
</linearGradient>
<linearGradient id="paint1_linear_27_1598" x1="400.099" y1="359.148" x2="475.492" y2="359.148" gradientUnits="userSpaceOnUse">
<stop stop-color="#00C9FF"/>
<stop offset="1" stop-color="#92FE9D"/>
</linearGradient>
<linearGradient id="paint2_linear_27_1598" x1="105.928" y1="387.049" x2="173.611" y2="387.049" gradientUnits="userSpaceOnUse">
<stop stop-color="#00C9FF"/>
<stop offset="1" stop-color="#92FE9D"/>
</linearGradient>
<linearGradient id="paint3_linear_27_1598" x1="99.2581" y1="404.014" x2="173.692" y2="404.014" gradientUnits="userSpaceOnUse">
<stop stop-color="#00C9FF"/>
<stop offset="1" stop-color="#92FE9D"/>
</linearGradient>
<linearGradient id="paint4_linear_27_1598" x1="282.925" y1="242.425" x2="489.054" y2="242.425" gradientUnits="userSpaceOnUse">
<stop stop-color="#00C9FF"/>
<stop offset="1" stop-color="#92FE9D"/>
</linearGradient>
<linearGradient id="paint5_linear_27_1598" x1="298.901" y1="246.979" x2="489.054" y2="246.979" gradientUnits="userSpaceOnUse">
<stop stop-color="#00C9FF"/>
<stop offset="1" stop-color="#92FE9D"/>
</linearGradient>
<linearGradient id="paint6_linear_27_1598" x1="141.489" y1="332.951" x2="228.622" y2="332.951" gradientUnits="userSpaceOnUse">
<stop stop-color="#00C9FF"/>
<stop offset="1" stop-color="#92FE9D"/>
</linearGradient>
<linearGradient id="paint7_linear_27_1598" x1="154.114" y1="195.958" x2="231.696" y2="195.958" gradientUnits="userSpaceOnUse">
<stop stop-color="#00C9FF"/>
<stop offset="1" stop-color="#92FE9D"/>
</linearGradient>
<linearGradient id="paint8_linear_27_1598" x1="249.666" y1="69.348" x2="331.177" y2="69.348" gradientUnits="userSpaceOnUse">
<stop stop-color="#00C9FF"/>
<stop offset="1" stop-color="#92FE9D"/>
</linearGradient>
<linearGradient id="paint9_linear_27_1598" x1="245.98" y1="98.6105" x2="268.93" y2="98.6105" gradientUnits="userSpaceOnUse">
<stop stop-color="#00C9FF"/>
<stop offset="1" stop-color="#92FE9D"/>
</linearGradient>
</defs>
</svg>
